<svg xmlns="http://www.w3.org/2000/svg" viewBox="0 0 1024 1024"><path fill="#ffd4aa" stroke="#ffd4aa" stroke-width="10" d="M356.2 198.1c-13.8 1.3-29.9 4.8-44.2 9.5-13.8 4.6-34.8 14.1-42.3 19.2-2.3 1.5-4.9 3.1-5.8 3.4-4.2 1.6-23.6 17.5-33.4 27.3-13.6 13.7-22.6 26.1-30.9 43-7.2 14.5-10.6 23.9-13.8 38.9-3.2 14.6-3.2 45.4 0 60.3 4.1 18.8 9.7 32 26.1 61.2 11.1 19.6 16.2 35.6 18.1 55.8 1.7 19-.6 39.4-6.7 57.8-2.5 7.6-9.1 23.7-11.5 28-6.2 10.8-12.2 25.4-15.5 37.2-2.5 9.2-2.7 11.1-2.7 30.3 0 19.9.1 20.9 3.2 32.4 11.9 44.4 42.2 77 84.5 91.1 17.9 5.9 25 7 46.7 7 26.7 0 40.5-2.9 73-15 36.1-13.5 57-17.3 81-14.6 27.2 3.1 44.4 9.1 76 26.4 17.7 9.8 40.5 20.9 51 25 52.4 20.5 110 15.1 153-14.4 8.6-5.9 27-21.4 27-22.8 0-.4 2.4-3.3 5.4-6.4 17.7-18.7 31.1-49 35.1-79 1-7.6.7-32.5-.5-40.7-2.3-15.9-7.6-31.2-17.9-51.7-15-29.9-21.1-54.8-19.7-80.3 1.4-27.5 7.4-46.2 24.7-76.5 19-33.5 25.7-57.4 24.6-89-.5-17.1-2.7-28.4-8.2-43-13.2-35-44.8-64.7-82.1-77-23.8-7.9-45.3-9-71.9-3.9-5.7 1.1-25 6.6-29.5 8.4-14.2 5.7-37.6 10.6-56.5 12-37.5 2.6-69.9-5.6-111-28.4-8.2-4.6-20.2-10.8-26.5-13.9-10.5-5-29.2-11.7-36.5-13.1-1.6-.3-6.3-1.2-10.3-2-15.4-3.2-35.4-4.1-52-2.5zM511 285.4c22.6 4.8 42.6 12.8 61.5 24.6 19.7 12.4 40 32.3 53.1 52 15.6 23.7 24.4 46.5 28.9 75 1.7 10.9 2 40.7.5 51.5-4.4 31.1-19.6 66.5-38.2 88.7l-4 4.8 8.9 9.5c7.1 7.8 9.2 9.4 10.8 8.9 1.1-.4 4.9-.9 8.3-1.1 5.6-.4 7.2-.1 12.6 2.6 5.6 2.7 10.3 7.3 43.2 41.8 61 64 78.8 83.2 81.1 87.8 1.3 2.4 2.8 7.5 3.4 11.4 3.4 22.5-10.8 45-32.1 50.7-5.6 1.5-24.3 1.6-23.3.1.2-.4-.4-.7-1.4-.7-3.2 0-11.7-5.6-16.2-10.6-2.5-2.7-8.3-9-13-14s-11.1-11.7-14.1-15c-11.2-12.1-47.7-51.3-60-64.4-6.9-7.4-14.9-16-17.7-19-9.9-10.6-12.3-19.3-8.4-30l2.2-6-2-2.8c-1.1-1.5-5.3-6-9.4-10.1l-7.5-7.3-6.8 4.2c-11.1 6.7-30.1 15.7-40.4 19-21.4 7-39.3 9.4-64 8.7-28.6-.8-49.3-5.8-73.6-17.7-42-20.5-72.6-53.4-90.8-97.7-10.6-25.7-14.9-64.7-10.2-93.3 6.4-39.6 26.1-77 55-104.8 23.5-22.5 53.2-38.7 84.1-45.8 16.1-3.6 23.8-4.3 45.5-4 18.7.3 23.1.7 34 3z"/><g fill="#d45500" stroke="#d45500" stroke-width="10"><path d="M444.5 285c-6.6 1-14 2.5-16.5 3.4s-5.2 1.6-6.1 1.6c-2.6 0-5.3 2.5-4.3 4.1.4.7.7 2.8.5 4.6-.3 3.9 2.3 4.7 3.3 1.1.4-1.7.8-2 1.7-1.1 1.2 1.2 4.9.6 4.9-.8 0-.5-.4-.9-.8-.9-.5 0-1.9-.9-3.2-2s-3.2-2-4.3-2-1.8-.3-1.4-.6c.6-.7 5-1.4 10.7-1.7 1.9-.1 4.1-.6 4.8-1 .7-.5 2.5-1 4-1.3 1.5-.2 3.8-.9 5.2-1.4 4.9-1.8 16.8-2.9 32.5-3 8.7 0 16.1-.3 16.4-.5 1.3-1.4-36.5-.2-47.4 1.5zm50.5.5c0 .9.4 1.4.9 1.1 1.8-1.1 4.2.6 3.9 2.8-.3 1.8.2 2.1 3.8 2.2 4.7.1 9.3 3 9.4 5.8 0 2 0 2 1.5 0 2-2.6 1.9-4.5-.2-3.7-1 .4-1.4.2-.9-.5.3-.6.2-1.3-.4-1.7-2.4-1.5-.6-2.3 4.3-1.9 7.4.6 14.8 2.6 15.4 4.1.3.7 1.1 1.3 1.9 1.3.7 0 1.9 1 2.5 2.2.6 1.3 1.3 2.4 1.4 2.6.1.1 1.6-.3 3.3-.9 2.4-.8 3.7-.7 6.1.6 2.8 1.4 4.2 3.5 2.4 3.5-.5 0-1.6 1.4-2.5 3-1.5 2.6-1.5 3-.2 3 .8 0 1.7-.6 2-1.4.4-1 1.5-1.3 3.7-1 1.8.3 4.3.6 5.7.8 3.5.3 7 1.6 7 2.6 0 1.1-5.8 4-6.2 3.1-.2-.3-1.7-1.3-3.3-2.2-2.8-1.4-3.3-1.4-7 .3l-4 1.7 3.3.1c3.2 0 4.3 1.4 2 2.4-.9.3-.7.9.6 2 2.4 1.9 5.2 2.1 6 .3.3-.9.8-.8 1.8.5.9 1.1 1.9 1.4 2.8.8.8-.5 1.8-.6 2.3-.3.4.3.7-.2.5-1-.2-.9 1.2-2.7 3-4.1 3.2-2.3 3.5-2.4 6.2-.8 3.5 2 2.8 3.5-1.2 2.6-2.6-.5-3-.4-2.5 1 .3.8.2 1.8-.4 2.1-.5.4-.7 1.1-.3 1.6.3.5 1 .7 1.5.4 1.4-.9 2.9 4 2.2 7.8-.5 3.2-.2 3.7 2.5 5.1 1.9 1 3.3 1.2 3.7.6.3-.6.1-1-.5-1-2.4 0 .3-2 4-3 2.2-.6 4-1.4 4-1.8 0-1.3-1.7-3.3-2.6-3.1-2.5.4-4.4-.3-4.4-1.7 0-.8.5-1.2 1-.9.6.3 1 .1 1-.5s-.8-1-1.7-.9c-2.5.3-5.4-1.1-4.7-2.3.3-.5 1.1-.4 1.9.2.8.7 1.8.9 2.4.6.5-.4 1.6.1 2.4.9.9.8 2.5 1.5 3.5 1.5 1.1 0 2.2.6 2.5 1.2.2.7.7 1 1.1.7.7-.7-8.8-7.9-10.4-7.9-.6 0-1-.4-1-.9 0-1.3-7-5.2-8.1-4.5-.5.3-.8 0-.7-.7.6-2.4-29.8-16.4-44.2-20.3-6.2-1.7-18.2-4.1-25.2-5.1-4-.5-4.8-.4-4.8 1z"/><path d="M454.5 288c-4.5.5-5 .7-5 3 .1 2.2.4 2.5 3.5 2.2 1.9-.1 3.7-.6 4-1 .3-.5 1.5-1.5 2.8-2.4 2.9-2 1.3-2.5-5.3-1.8zm-50.6 9c-.8.5-2.7 1.1-4 1.3-3.7.7-17.9 8.1-21.4 11.1-4.1 3.5-2.4 3.3 3-.4 4.3-3 6.1-3.7 5.1-2.2-.2.4 0 1.4.5 2.2.9 1.3 1 1.3.7 0-.7-2.4 1.4-4 3.7-2.7 1.8.9 1.9.9.6-.6-.9-1.1-1-1.7-.2-1.8.6-.1 1.7-.2 2.4-.3.6-.1 1.8.4 2.5 1.1 1.9 1.9 4 1.6 5.2-.6 1.2-2.4-.1-3.5-3-2.6-3.8 1.2-2-.6 2.5-2.5 2.5-1.1 4.5-2.2 4.5-2.5 0-.7-.2-.6-2.1.5zm119.4.7c-1.2 1-2.9 2.3-3.9 2.9-2 1.2-1.1 3.4 1.3 3.4.9 0 1.3-.6.9-1.5-.3-.8-.1-1.5.4-1.5.6 0 1 1.8 1 4s.5 4 1 4c.6 0 1-.6 1-1.4 0-.9.9-1.2 2.8-.9 2.6.4 2.6.4.8-1.1-1-.8-2.2-1.3-2.6-1.1-.5.3-.7-.6-.6-2 .1-2.6 1.6-3.6 1.6-1.1 0 .8.7 1.6 1.5 2 1.7.6 2-.9.5-2.7-.6-.7-1.6-2-2.3-3-1.2-1.8-1.3-1.8-3.4 0zm-70.3 3.4c-.8.5-1 .9-.5.9.6 0 .2.5-.7 1.1-1.2.7-1.8 2.2-1.8 4.9 0 3.8.1 3.9 3.3 3.4 1.7-.3 3.8 0 4.6.5 1.2.8 1.2 1.2-.2 2.5-.8.9-2.3 1.6-3.2 1.6-1.5 0-1.5.2.1 1.7 1.7 1.7 1.7 1.8-.7 2.1-1.3.2-2.8.8-3.3 1.3-.6.5-2.4.9-4.2.9-2.4 0-3.3-.5-3.7-2.1l-.6-2.2-3.6 2.2c-2 1.1-4.1 2.1-4.6 2.1-1.6 0-3.9 2.7-3.1 3.5.4.4-.4.4-1.7 0-1.8-.5-2.2-.4-1.6.6.6.9.3 1.1-.8.6-1.6-.6-2.3.3-1.1 1.5.8.8 7.4-1.4 7.4-2.5 0-.5.7-.6 1.6-.3s5.7-.4 10.7-1.6c8-2 11.9-2.3 29.4-2.3 11.1 0 20.1-.1 19.9-.2-.7-.7-8.1-1.2-20.1-1.3-13-.1-13.8-.2-10.7-1.5s4.7-3 1.8-1.9c-2 .8-2.7-2.3-.9-4.1 1.3-1.4 1.4-2 .3-4.3-.8-1.5-1.2-3.3-1.1-4 .1-.6-.5-1.2-1.3-1.2s-1.6-.4-1.8-.8c-.5-1.4-6.2-2.2-7.8-1.1z"/><path d="M391 309c0 .6-.4.9-.9.6-.5-.4-.7.2-.4 1.3.3 1 0 2.2-.7 2.6-.8.5-.8 1 .1 2.1 1.3 1.6 10.4 2 9.4.4-.3-.6-1.5-1-2.6-1-2.3 0-2.4-1.3-.3-3.5 1.9-1.9 1.8-2-1.8-2.9-1.8-.4-2.8-.2-2.8.4zm-24.6 8.1c-12.1 9.6-20.4 17.4-20.4 19.1.1.7 1.3-.2 2.9-2 1.5-1.7 3.5-3.2 4.4-3.2 2.2 0 2.2 3.6 0 5.8-1.6 1.6-1.5 1.7 1 2 2.4.3 2.5.5 1.5 2.8-1.3 2.8-.9 3.5 2.5 3.8 1.9.2 2.4-.1 2-1.3-.5-1.2-.3-1.3.7-.4s2.1.1 5.3-3.5c3.5-4.1 3.8-4.7 2.1-5.1-1-.1-2.6-.9-3.4-1.7-1-.8-2-1-3-.4-1.7 1.1-5.7 1.4-4.7.3.4-.3 0-1.5-.9-2.5-1.4-1.4-1.4-2-.4-3.3.8-.9 2.1-1.3 3.4-1 1.7.5 1.8.4.6-.5-1.3-.9-1.1-1.4 1.4-3.3 6.5-4.9 10.7-8.7 9.8-8.7-.5 0-2.7 1.4-4.8 3.1zm40.9-1.3c-1.8.2-3.4.7-3.4 1.3-.1.5-.3 1.3-.4 1.9-.1.5-.3 1.4-.4 1.9 0 .5-1.5 1.4-3.2 2-2.5.9-2.9 1.4-2 2.5s2.7 1.3 6.4.7c.4 0 .7-1.5.7-3.1 0-3.2 1.6-4.1 2.3-1.3.4 1.6.5 1.6.6-.1.1-1.5.4-1.6 1.6-.6.8.7 3.9 1.2 7 1.2 5.7.1 6.8.9 3.8 2.8-1.5 1-1.4 1.1.7.6 1.4-.3 2.8-.6 3.2-.6s.5-.6.2-1.4-.1-1.7.5-2.1c2-1.2 1.1-2.2-1.9-2.3-1.6 0-4.4-.7-6.2-1.5-4.5-2-5.8-2.3-9.5-1.9zm-24.8 4.1c-2.7.6-3 1-3.3 5.4-.2 2.8.1 4.7.7 4.7s.8-.6.5-1.4-.1-2.3.5-3.3c.9-1.6 1-1.6 1.1.4 0 1.4.6 2.3 1.5 2.3.8 0 1.5.4 1.5.9s-.7 1.4-1.5 2.1c-3.4 2.8.4 5.6 4.3 3.1 2-1.2.1-7.7-2.1-7.3s-2.2-2.1-.1-5.3c.9-1.4 1.2-2.4.8-2.4-.5.1-2.2.4-3.9.8zm37.5 9.8c-2.6.9-9.3 4.3-15.5 7.8-3.3 1.9-6.7 3.8-7.5 4.1-4.6 1.8-6.9 3.3-10.4 6.6-2.2 2.1-4.3 3.8-4.8 3.8-1.3 0-17.8 17.2-17.8 18.4 0 .6 3.5-2.5 7.8-6.9 4.2-4.3 9.3-9.1 11.3-10.5s5.5-4.1 7.8-6 4.5-3.5 4.9-3.5 3.9-1.8 7.7-4c3.9-2.2 9.9-5.4 13.5-7.2 5.8-2.9 7.1-4 3-2.6zm167.1 2.7c-.9 1-.8 1.6.4 2.6.8.7 1.3 2.4 1.1 4.1-.2 1.9.3 3.4 1.7 4.6 1.1 1 1.7 1.2 1.3.5s-.1-1.2.8-1.2c1.5 0 1.7-4.2.3-5.7-.4-.3-.7-1.9-.7-3.5 0-2.1-.5-2.8-1.9-2.8-1 0-2.4.6-3 1.4zm-42.9 6.1c1.8 1.9 3.7 2.8 5.8 2.8 1.7 0 2.6.4 1.9.8-1.8 1.1-.5 2.4 5 4.9 2.7 1.3 4.8 2.7 4.5 3.1-.2.4 0 1 .5 1.3.5.4 1.2.2 1.6-.4.3-.5-.3-1.5-1.5-2.2-1.1-.7-2-1.6-2-2.1 0-.4.5-.5 1-.2 1.5.9 1.2.2-1.2-3.1-1.3-1.7-2.9-2.9-3.5-2.7-.7.3-1.6-.2-1.9-1.1-.7-1.7-4.4-2.2-4.4-.6s-1.9 1.2-5.3-1.2l-3.2-2.1zm73.8 16c0 .6.7 2 1.5 3.1.8 1.2 1.1 2.4.8 2.8-.3.3-.1.6.5.6 1.6 0 6.2 7.5 6.2 10 0 1.1.7 2 1.5 2 1.3 0 3.5 2.8 3.5 4.5 0 .4-2.1.5-4.7.4-4.2-.3-4.6-.1-4.9 2.1-.2 1.4-.6 3.7-.9 5.2-.2 1.6 0 2.8.5 2.8 1.9 0 4-3.3 4.1-6.3 0-1.8.3-2.6.6-2 .2.7 1.1 1.3 1.8 1.3.8 0 1.7.9 2 2 1.1 3.3 2.4 2.2 1.8-1.5-.3-1.9-.3-3.5.1-3.5 1 0 6.9 13.2 6.8 15.2 0 1 .3 1.8.8 1.8s.7 1.4.5 3.1c-.3 2.4-.1 3 1 2.5 1.9-.7 2.9 1.4 4.9 10.3.9 4.1 2.1 8.1 2.5 9 .5.9 1.1 4.1 1.5 7.1.3 3 1 7.3 1.6 9.5 2.6 10 2.2 49.6-.6 57-.4.8-.2 1.5.4 1.5 1.6 0 2.4-5.4 3.1-21 1-24.2-.9-41.6-7-62.2-3.4-11.7-9.7-27.2-13.9-33.9-1.6-2.7-3-5.3-3-5.8 0-.4-1.6-2.9-3.5-5.4s-3.5-4.9-3.5-5.4c-.1-1.2-5.9-7.9-6-6.8zm-298.6 14.2c-2.2 3.2-4.9 7.4-5.8 9.3-1 1.9-3.1 6-4.6 9-3.4 6.7-7.1 16.2-6.5 16.8.4.4 5.5-10.3 5.5-11.6 0-1.1 4.8-5.2 6-5.2.6 0 1-.5 1-1 0-.6-.4-1-1-1-.5 0-1-.5-1-1.1 0-.5.5-.7 1.1-.4.6.4 1 .1.8-.6-.4-3.6.2-4.7 3.5-5.3 2.9-.6 3.3-.9 2.8-3.2-.3-1.6-.9-2.3-1.8-2-.8.3-1.4.1-1.4-.4 0-.6.4-1 .8-1 .5 0 1.8-1.8 3.1-4 3.2-5.7 2.2-5-2.5 1.7zm35 4c.3.3-.1 2.1-.9 4-1.4 3.3-1.4 3.5.3 2.9 1.3-.5 1.3-.3-.3.9-4.9 3.5-6.3 5.7-6.1 9.4.2 2-.3 4.3-1 5.1-1.5 1.9-4.9 9.9-3.5 8.5.5-.6 2.4-3.7 4.2-7s4.3-7.4 5.5-9.1c1.8-2.3 2.1-3.3 1.2-4.2s-.8-1.2.4-1.2c.8 0 3.2-2 5.2-4.4 3.7-4.5 4.9-7.1 2-4.2-.8.9-2 1.3-2.6 1-.7-.4-.6-.9.2-1.4.6-.4-.3-.7-2-.8-1.8 0-3 .2-2.6.5zm-54.8 38c-1 3.2-2.2 7-2.6 8.5-.7 2.1-.6 2.8.4 2.8.8 0 1.7-1.6 2.1-3.6.6-3.2.9-3.6 3.1-3.1 2.1.4 2.5.1 2.1-1.4-.3-1.1-.1-2.2.4-2.5 1.8-1 .4-5.9-1.8-6.2-1.6-.2-2.3.7-3.7 5.5zm37.4 2.8c-.7.9-1.9 1.4-2.6 1.1-1.8-.7-4.5 2.1-3.8 3.9.3.7 1.4 1.2 2.5 1 2.3-.5 2.5 2.7.4 6.5-1.5 2.7-2.1 8.1-.7 6.4 1.5-1.6 6.7-20.4 5.7-20.4-.1 0-.8.7-1.5 1.5z"/><path d="M313.7 415.1c-.9.6-1.4 1.5-1.1 2.1.5.7-.2.9-1.9.6s-3.2 0-3.9.9c-1 1.3-1.3 1.3-2.3 0-.8-1.1-1.6-1.3-2.6-.6-1 .6-1 .9-.1.9.8 0 .6.6-.5 1.9-1 1.1-2.4 2.7-3.2 3.6-.9 1.2-1.6 1.3-2 .6-.8-1.3-2.4 8-4.3 24.7-.9 8.9-.9 14.4 0 26.5 1.2 14.4 3.9 31.2 6 36.7 1.8 4.6 2.3-.2.7-6-1.7-6-3.4-13.7-4.1-18.5-.2-1.7-.8-6.2-1.3-10-.6-3.9-1-9.8-1-13.1-.1-5.2.2-6.2 1.6-6 2 .1 3.9-5.4 2.8-8.1q-.75-1.8-1.2-.6c-.9 2.4-2.3 1.3-2.3-1.6 0-2.4.3-2.8 2-2.4 1.4.4 2 0 2-1.2 0-.9.7-2.3 1.5-3.1 1.2-1.2 1.2-1.9.3-3.4-.9-1.4-1-2.2-.1-3.1.8-.8 1.3-.7 1.8.2.5.8.4 1-.3.5-.7-.4-1.2-.2-1.2.3 0 .6.3 1.1.8 1.1 2.8-.1 5.3-6.7 3-8.1-1-.7-.9-.9.4-.9.9 0 1.8-.4 2-1 .2-.5 2.7-2.2 5.7-3.7 6.6-3.3 8.4-5.8 5.9-7.7-1-.7-1.5-1.6-1.1-1.9.9-1 .1-.8-2 .4zm300.4 17.4c-.1.5.6 4.5 1.4 8.8 1.8 9.2 2 34.7.4 45.2-.6 3.8-1.2 8.1-1.4 9.5-.1 1.4-.5 3.2-.9 4-1.7 4.3-6.6 19-6.6 19.7 0 .4.5.1 1-.7.8-1.1.9-.9.5 1.1-.5 1.8-.2 2.6.8 2.6s1.2-1.2 1-4.4c-.4-4.2-.4-4.4 2.2-3.9 1.8.3 2.5.1 2.2-.7-.2-.7-1.1-1.1-2.1-.9-1.7.3-2.3-2.3-.6-3.3.5-.3.6-1.3.3-2.2-.4-1.1-.3-1.4.5-.9q1.2.75 1.2-1.8c0-1.4.5-2.8 1-3.1.6-.3 1-2.2 1-4.1 0-2.5.4-3.4 1.6-3.4 1.4 0 1.4-.3.4-1.6-1.1-1.2-1.1-1.5 0-1.2.8.2 2-.9 2.7-2.5.8-1.5 1.8-2.7 2.4-2.7.5 0 .9-.8.9-1.7 0-1.5-.1-1.5-1.3.1-1.3 1.7-1.4 1.6-2.6-1.3-1.1-2.4-1.1-3.4-.2-4.5s1-2 .1-3.6c-1.3-2.4-.9-13.7.4-13.2.5.2 1.3-.2 1.7-1 .6-.8.9.2.9 2.8s.7 4.9 2 6.3l1.9 2.3.7-2.6c.5-2.1.9-2.4 2.4-1.6 1 .6 2.8 1 4 1 1.7 0 2-.4 1.5-2.1-.5-1.3-.2-2.5.6-3.1 1.1-.8 1.1-.9-.2-.5-1 .3-2.5-.8-4.2-3.5-1.4-2.2-3.8-4.6-5.2-5.4-2.6-1.3-5.5-1-5.5.7 0 .5-.4.9-1 .9-2.1 0-1-4.7 1.5-6 3.3-1.7 2.8-5.4-.7-5.8-2.6-.3-2.8-.7-5.4-8.7-.6-2.2-1.2-3.6-1.3-3zm-283.2 5.6c-.6 2.4-1.3 6.4-1.5 8.8-.3 4-1.4 7.2-1.4 4 0-.9-1.1-1.4-3-1.5-3.5-.1-3.9 1-1 2.8 1.1.7 2 2.3 2 3.5s.5 2.5 1.1 2.9c.8.4.7.9-.2 1.5s-1 1.2-.4 1.6c1.2 1 1.9 4.4.8 4.2-2.4-.4-3.3.4-3.3 2.7 0 1.4-.7 3.2-1.5 4-2.1 2.1-1.9 3.1.9 5 1.5.9 2.3 2.1 1.9 3.1s0 1.4 1.2 1.1c1.4-.2 2.1.8 3.2 4.7 1.4 5.5 1 9.9-1 9-.7-.4-.4 0 .6.8.9.8 1.7 1.9 1.7 2.6 0 .6.4 1.1.8 1.1 1.1 0 4.2 9.9 3.6 11.5-.3.7-.1 1.6.5 2 1.9 1.1 1.2 4.7-.9 5.2-1.1.3-2 1.1-2 1.9 0 2.3 2.1 2.6 3.9.5l1.8-2.1 1.7 2.2 1.7 2.3-1.1-2.3c-1.8-3.8-6.9-20.9-8.7-29.5-2.1-9.5-2.4-43.6-.5-52.2 1.3-6.3.7-7.2-.9-1.4z"/><path d="M637 483.9c0 .5.6 1.2 1.3 1.4.7.3.5.6-.5.6-1 .1-1.8.8-1.8 1.6 0 .9-.7 1.8-1.5 2.1-.8.4-1.5 1.2-1.5 1.9 0 2.4-3.1 3.9-7.9 3.6-3.8-.1-5 .2-5.5 1.5-.4 1-.1 2.1.6 2.5.7.5 1.5.4 1.6-.1.9-2.6 2.2-.5 2.2 3.4 0 2.5.4 4.7.8 5 .4.2 2.7-.4 5.1-1.5 2.4-1 5-1.9 5.8-1.9 1.1 0 1.4-.7 1.1-2.5-.3-1.4-.1-2.5.3-2.5.5 0 .9 1.4.9 3.1s.4 2.8 1 2.4c.6-.3 1-1.7 1-3 0-1.9.4-2.2 2.2-1.7 2 .5 2.1.3 1.3-2.9-.4-1.9-.9-5-1-7.1-.2-3.5-2.3-6.8-4.4-6.8-.6 0-1.1.4-1.1.9zM305 504c0 .5-.7.7-1.5.4-1.7-.7-1.9-.1-.6 2.4 1.8 3.7 2.8 8.1 2.4 10.5-.6 3.2 1.5 4.5 3.2 1.9 1-1.4 2.2-1.8 4.2-1.5 2.6.4 2.6.3 1.1-1-2-1.6-2.5-3.2-.7-2.1.7.4.9-.1.7-1.2-.3-1.4-1.2-1.8-3.1-1.7-2.1.1-2.7-.3-2.7-1.8 0-1-.6-1.9-1.4-1.9-.9 0-1.2-.8-.8-2.5.2-1.4.2-2.5-.2-2.5-.3 0-.6.4-.6 1zm341.4 12.2c-.8 4.1-2.9 9-9.9 24.2-2 4.3-4.1 9-4.6 10.4-.8 2.1-1.2 2.3-1.9 1.2-.9-1.3-1-1.3-1 0 0 .8.4 2.1.8 2.8.6.8 2.8-2.8 6.5-10.3 5.9-11.9 13.2-31.5 11.7-31.5-.5 0-1.2 1.5-1.6 3.2zm-346.8 2.3c.5 2.8 8.1 22.5 8.9 23.4.2.2.1-1.4-.2-3.4-.4-2.8-.3-3.6.5-3.1 2.5 1.5 1-2.3-2.1-5.7-1.9-1.9-3.9-5-4.6-6.8-2.4-6.3-3.2-7.7-2.5-4.4zm42.9 7c.7 2.3.8 2.5.6 4.3-.1.9-.6 1-2 .2-2.6-1.3-3.1-1.3-3.1.5 0 .8.6 1.5 1.3 1.5 1.4 0 1.6 2.7.3 4.8-.4.6-1.6 1.2-2.6 1.2-1.1 0-2.4.9-3 2-.8 1.5-.8 1.8.3 1.4.8-.3 2.1.1 2.9.9s2.3 1.6 3.4 1.9c1.3.2 2 1.3 2.2 3.5.4 4 2.6 6.1 4.5 4.1 1.5-1.4 1.7-5.6.3-7.6-1.5-2.4 1.1-3.9 3.2-1.9 1.4 1.5 1.5 1.9.3 2.6-.7.5-1 1.4-.7 2 .4.6.2 1.1-.5 1.1s-.9.3-.5.7c.4.5 1.3.8 1.9.8 1.6 0 4.1 5.5 3.1 6.5-.5.5-2.6 1.1-4.7 1.3-2.1.3-4.3.9-4.9 1.5s-1.7.8-2.4.5c-.8-.3-1.4 0-1.4.5 0 .6 1.7 1.4 3.8 1.7 2 .3 4.7.8 6 1.1 1.6.3 2.2 0 2.2-1.4 0-1 .7-1.9 1.5-1.9s1.5.8 1.5 1.8c0 .9.6 2 1.3 2.2.6.3.3.6-.8.6-1.5.1-2.1.9-2.2 3.3-.1 1.7-.8 3.5-1.4 3.9-1.4.8-.3 2.9 1.6 2.9.8 0 1.1-.7.8-2-.5-2 .3-2.4 4.1-2 1 .1 1.5-.3 1.2-.8-1-1.7 1.2-2.4 3.3-1 1.5.9 2.5.9 4.5 0 3.3-1.5 3.3-2.1-.8-6.5-3.7-4.1-5.3-4.8-3.6-1.6 1.4 2.5.6 4.9-1.5 4.9-.9 0-1.5-.9-1.5-2.3 0-1.2-.3-3.3-.7-4.6-.5-2-.3-2.3 1.1-1.8 1.5.6 1.5.4-.3-2.1-3.2-4.5-6.2-7.3-7.1-6.7-.4.3-.6-.3-.3-1.3.5-2-6.3-14.2-7.9-14.2-.5 0-.7-.3-.5-.8.3-.4-.4-2.3-1.5-4.2-1-1.9-1.6-2.6-1.3-1.5z"/><path d="M310.5 530.3c-1.2 1-1.4 1.6-.7 2.1.7.4 1.2 1.8 1.2 3 0 1.3.7 2.9 1.5 3.6s1.2 1.6.9 2.1.2 1.6 1.1 2.5c2.1 2.2 4.5.3 2.6-2-.7-.8-1-1.9-.7-2.4.3-.6-.1-1.5-.9-2.2s-1.5-2.2-1.5-3.4c0-3.6-1.3-4.8-3.5-3.3zm277.2 22c-9.5 12.4-22 23.4-38.8 34.2-6.6 4.3-20.7 11-26.6 12.7-1.8.5-3.3 1.3-3.3 1.8 0 1.7 2.4 1.1 8.4-2 3.2-1.6 7.4-3.4 9.4-4.1 2.1-.6 4.7-1.8 6-2.6 1.2-.7 2.8-1.1 3.4-.7.7.4.8.3.4-.4-.8-1.4-.4-1.5 1.8-.6.9.3 1.3 1 1 1.5s.2.9 1 .9c1.9 0 2-.4.4-3.1-1-1.6-1-2.3-.1-2.6.6-.2 3.6-2.1 6.6-4.3 3.7-2.6 6.3-3.7 7.6-3.3 1.2.3 2.1.9 2.1 1.4 0 1.5 2.4.5 3.7-1.6 1.4-2.3 1.6-3.6.6-3.4-.5.1-1.7.1-2.8 0-1.6-.1-1.7-.3-.5-1.1.8-.5 1.7-.6 2-.2.4.6 2.9.7 6.9.3.8 0 1.1-.9.8-2.2-.4-1.7-.3-1.8.9-.8s1.3.9.8-.5c-.5-1.3.1-1.6 3.2-1.6 5.7 0 8.1-.9 8.7-3.2.4-1.5 1.1-1.8 2.6-1.3 1.6.5 2.1.2 2.1-1 0-1.3-.6-1.6-2.5-1.1-2.9.7-4.2-1.2-2.9-4.2 1.1-2.5 1.2-4.5.1-6-1.5-1.9 1.1-4.4 3.3-3.2 1.4.8 1.9.5 2.3-1.2.4-1.2.4-2.5.1-3-1.2-2-3.5-.3-8.7 6.5zM312 548c.8.5 1.1 1 .5 1-.7 0-.7.3 0 .8.6.4 2.2 3.2 3.8 6.2 4.2 8.5 13.2 20.1 14.5 18.8.6-.6.8-1.7.5-2.6-.4-.9-.2-1.3.4-.9s1.4 0 1.7-.9c.6-1.5.4-1.5-1.8-.1-2.2 1.5-2.5 1.4-4.3-.6-3.8-4.3-8.4-12-7.9-13.3.3-.7 0-1.1-.7-.8-.8.3-2.2-1.4-3.5-4.1-1.2-2.5-2.7-4.5-3.4-4.5-.9 0-.8.3.2 1zm315 10.5c-.7.9-1.9 1.4-2.7 1.1s-1.1-.1-.8.4c.3.6.1 1-.4 1-.6 0-1.1 1-1.1 2.3 0 1.7-.9 2.7-3.5 3.7-3.6 1.4-4.7 3-2 3 .8 0 1.5.5 1.5 1.1 0 .5-.5.7-1.2.3s-.8-.3-.4.5c.4.6-.2 2.6-1.4 4.4-1.7 2.6-1.4 2.3 1.9-1.2 2.2-2.4 5.1-6.3 6.3-8.7s2.5-4.4 2.8-4.4c.4 0 1.2-1.1 1.8-2.5 1.3-2.9 1-3.2-.8-1zm-286.2 11.7c-4.2 1.1-6.2 4-2.5 3.7s5.7 0 5.7 1.1c0 .5-.8 1-1.8 1-1.1 0-2.5 1.3-3.4 3.2l-1.5 3.3-3.1-3.2c-1.8-1.7-3.2-2.6-3.2-2 0 1.4 14.5 16.7 15.8 16.7.5 0 .2-1.6-.7-3.5s-2.1-3.3-2.8-3c-.7.2-1.5-.1-1.9-.7s-.3-.8.4-.4c.5.3 1.3 0 1.6-.6.4-1 .8-1 1.1-.2 1 2.1 4.5.3 4.5-2.2 0-2.8-1.5-3.1-2.9-.7-.9 1.7-1.2 1.6-3.3-.5s-2.2-2.2-.3-2.3c1.1-.1 2.5-.1 3.1 0 .7.1 1.4-1.2 1.6-2.8.2-1.7.1-2.8-.4-2.5-1.4.9-.9-1.4.8-3 .8-.9 1.1-1.6.6-1.6-.6 0-1.6-.2-2.4-.4-.7-.2-3 0-5 .6zM380 575c0 .6 1.5 2 3.4 3.1 2.4 1.4 3.3 2.5 2.9 3.6-.5 1.3-.2 1.5 1.1 1s1.7-.3 1.3.7 0 1.2 1.5.8c1.4-.3 1.9-.1 1.4.6-.5.8 0 1.2 1.3 1.2 2.6 0 7.1 2.1 7.1 3.2 0 .5.5.6 1 .3.6-.4-2.9-3.3-7.8-6.5-4.8-3.2-9.4-6.6-10.1-7.4-1.5-1.8-3.1-2.1-3.1-.6z"/><path d="M561.3 581.1c-.6.6-.9 1.8-.6 2.6.4 1.1 0 1.4-1.5 1.1-1.2-.1-2 .1-1.9.7.1.5.5.9 1 .7.4-.1.7.6.7 1.5 0 1 .7 2.7 1.5 3.7 1.4 1.9 1.5 1.9 3.5.1 1.1-1 2.3-1.5 2.7-1.2.3.4.2.7-.3.7s-1 1.1-1 2.5c-.2 2.1 0 2.2 1.3 1 2.3-2.3 4.5-1.9 3.9.7-.3 1.3-.3 1.7 0 1 .3-.6 1.5-1.2 2.6-1.2 2.3 0 7.8-3 7.8-4.3 0-.4.5-.5 1-.2 1.4.9 1.2-1.4-.2-2.8-.7-.7-2.9-1.4-4.9-1.5-3.6-.3-4.1-.4-9.6-1.7-3-.7-3.8-1.5-3.4-3.8.2-1.1-1.3-.9-2.6.4zm-211.7 16c2.9 3.3 11.4 9.9 12.7 9.9.7 0 .6-.4-.3-1-1.2-.8-1.2-1.1.3-2.8.9-1 1.7-2.6 1.7-3.4 0-1.9-3.7-3.1-4.4-1.4-.3.8-.7.7-1.4-.3s-1.1-1-1.7-.1c-.8 1.3 1.4 3.2 3 2.6.6-.2 1.2.5 1.2 1.5.2 1.9-1.3 2.7-1.9 1-.1-.5-.9-1.1-1.7-1.3s-3-1.8-4.8-3.6c-3.8-3.6-5.6-4.4-2.7-1.1zm296.4 4.2c2.5.7 5.6 1.8 7 2.4 3 1.3 17 14.7 17 16.3 0 .6-.4.8-1 .5-1.1-.7-1.1-.7-1.6 5.7-.2 4.4-.1 4.8 1.9 4.7 1.2 0 1.6-.3 1-.6-1.5-.5-1.8-3.3-.4-3.3.5 0 1.4.6 2.1 1.4 1.3 1.7 4.3 1 3.7-.9-.3-.6.1-1.2.9-1.2s1.4.3 1.4.7c0 .3 1.6 2.3 3.6 4.4 2.7 2.9 3.3 4 2.3 4.7-.9.5-.5 1 1.5 1.5s2.4.9 1.4 1.5c-1 .7-.8.9.7.9 2.5.1 4.6 1.9 11.5 9.8 4.9 5.7 5.3 6.5 3.8 7.6-2 1.5-.8 3.9 1.5 3 .9-.3 1.4-1.1 1-1.7s0-.8 1-.4c1 .3 1.7.4 1.7 0 0-1.7-16.6-19.4-17.4-18.6-.2.3-1.1-.8-1.9-2.4-.9-1.6-5.1-6.2-9.4-10.3s-7.7-7.8-7.6-8.1c.4-1.3-13.3-13.6-17.4-15.7-2.2-1.2-6.1-2.4-8.5-2.6l-4.3-.5zm-143.8 10.3c-2.4 2-4.2 4.1-4.1 4.7.3 2.8-.2 3.7-2.3 3.8h-2.3l2.3.9c3.2 1.4 2.7 2-1.5 1.7-3.5-.2-3.8 0-4.1 2.5-.3 2.1.1 2.8 1.5 2.9 3.6.1 5.6.8 6.4 2.1 1.3 2 1.1 2.8-.8 2.8-1.2 0-.7.7 1.5 2 3.5 2.2 4.3 2.4 4 1.2-.4-1.4 2.2-5.1 4.2-5.7 1.8-.6 1.9-.8.4-3.1-1-1.5-1.2-2.4-.5-2.4.6 0 1.1-.9 1.1-2s-.6-2-1.4-2c-.7 0-1.6-1.1-1.8-2.5-.4-1.8 0-2.6 1.4-3.1 1.1-.3 2.5-.1 3.1.5 1.5 1.5 2.7 1.4 2.7-.4 0-1 1-1.5 3.1-1.5 1.7 0 2.8-.4 2.4-1-.3-.6-1.7-1-2.9-1-1.5 0-2.6-.7-2.9-2-.8-3.1-4.8-2.4-9.5 1.6zm80.5-2c.5 1.3.1 1.5-1.5 1-1.2-.3-3.1-.9-4.2-1.2-1.3-.3-2-.1-2 .9 0 1.6 2.7 3 4.1 2.1.5-.3.9.1.9.8 0 .8 2.5 3.8 5.6 6.8s5.4 4.8 5 4 .2-.4 1.3 1 2.1 2.8 2.1 3.2c0 .5.5.8 1.1.8s.1-1.3-1-2.9c-1.1-1.5-1.8-3.1-1.4-3.5.3-.3-.6-.6-2-.6-1.8 0-2.7-.5-2.7-1.6 0-.8-.4-1.2-1-.9-.5.3-1-.1-1-.9 0-1.4 1.9-2.1 4.3-1.7.5.1.6-.3.2-.8-.4-.7-1.5-.7-3.2 0-2.2.8-3 .6-4.7-1.1-1.6-1.6-1.7-2-.5-2 2.6 0 4-2.1 2.4-3.6-1.8-1.9-2.6-1.8-1.8.2z"/><path d="M524.3 624.8c-1.2 1.6-2.3 4-2.5 5.3-.3 2.3-.2 2.4 6.2 2.2 3.6-.2 6.6-.7 6.8-1.2.2-.6 1-.7 1.8-.4 3.2 1.2-15.2 7.8-25.1 8.9-2.2.3-4.9.9-6 1.4-4.7 2.1-46 3.9-49.4 2.1-1.1-.6-3.4-.8-5.3-.4l-3.3.7 4 .7c2.2.5 11.9.8 21.6.8 14.4.1 19.9-.3 31-2.3 14.7-2.7 31.2-7.2 31.7-8.7.2-.5 1.2-.9 2.3-.9 2.1 0 2.7-3 .7-3.1-.7 0-.3-.4 1-.9 3.3-1.4 2.8-3.4-.5-2.5-6.4 1.6-7.7 1.4-10.3-1.6l-2.5-3zm73.1 8.1c.5.7-.2 3.5-1.4 6.4-3.8 8.7-1.5 20.1 5.4 27 1.4 1.4 2.6 3.1 2.6 3.7 0 .5.5 1 1 1 .6 0 .4-1.3-.5-3s-2-3-2.5-3c-1.6 0-5.1-9-4.1-10.9 1-1.7-1-5.6-2.2-4.4-1.4 1.3-.6-4.8 1-8.2 1.7-3.6 3.3-4.6 3.3-2 0 .8.7 1.5 1.5 1.5s1.5-.3 1.5-.8c0-1.1-1.6-3.4-2.4-3.3-2 .3-2.4-.1-1.9-1.8.3-1-.1-2.2-.8-2.6-.8-.6-1-.4-.5.4zm89.3 16c.3 1.1-.4 2.1-1.9 2.8-1.3.7-1.7 1.2-1 1.2.6.1 1.2 1 1.2 2.1 0 2.2 1.6 2.7 2.2.8.2-.6 1.8-1.3 3.5-1.4 6-.4 7-2.5 2.1-4.4-1.8-.6-4-1.6-4.9-2-1.3-.7-1.6-.5-1.2.9zm-48.3 2.6c.6 1.8.4 1.8-2.7.4-1.6-.7-3.4-.7-5.8-.1l-3.4 1 3.1.1c5.5.2 9.4 1.3 9.4 2.7 0 2 1.7 1.7 4.1-.7 2.7-2.7 2.1-4.1-2-4.5-2.6-.3-3.2-.1-2.7 1.1zm17 .7c.2 1.8-.2 2.8-.9 2.8-1.2 0-2.4 5.7-1.7 7.9.4 1.3 2.2 1.4 4.1.2 1-.6 1.1-1.3.2-2.9-.7-1.2-.7-2.3-.2-2.7.5-.3 1.2.3 1.4 1.2.3 1 .5.1.6-2 .1-2.6-.3-3.7-1.3-3.7-.8 0-1.7-.8-2-1.8-.3-.9-.4-.5-.2 1zm54.1 7.8c-.3.5-.1 1.1.4 1.5.6.3 2 1.9 3.2 3.6l2.1 3-2.7-.7c-2-.5-2.6-.4-2.1.5.4.6 1.1.9 1.5.7.4-.3 1.4.6 2.1 1.9 1.1 2.1 1.5 2.2 2.4 1 .8-1 1.6-1.2 2.6-.5 1.3.8 1.3 1.2.1 3.2s-1.1 2.4 1.5 4.5c1.6 1.3 3.8 2.3 5 2.3 1.1 0 2.8.8 3.7 1.8 1.5 1.6 1.5 1.8-.3 1.9-1.3.1-1.7-.3-1.3-1.3q1.05-2.85-2.7.3c-1.1 1-2 2.7-2 3.8 0 1.5.2 1.7.9.6.5-.8 1.8-1.2 3-.8 1.2.3 1.9.1 1.5-.4-.3-.5 0-.9.7-.9s.9 1 .6 2.9c-.7 3.2 1.6 6.1 4.7 6.1 2.2 0 1.1-1.9-1.7-2.9-1.1-.4-1.6-1-1.1-1.4 1.7-1 6.6 3.7 6.7 6.5.2 2 .5 2.4 1.5 1.6q1.2-1.2 1.2.3c0 1.1.2 1.1 1-.1.9-1.3 1-1.3 1.1 0 .1.8.1 2.1 0 2.7-.1.7.3 1.3 1 1.3s.9-1 .7-2.5c-.5-2.1-.3-2.3.9-1.3 1 .8 1.3 2.4 1 4.9-.3 2.1.1 4.8.7 6.1.7 1.3 1.1 2.9.8 3.6-.3.9.3 1.1 2.2.6 1.5-.3 3.2-.1 4 .5 2.3 2 2.7-2.4.4-4.9-1.1-1.2-1.8-2.4-1.5-2.7s1.2.4 1.9 1.6 1.9 2.1 2.6 2.1 1.1.4.8.9.1 1.5 1 2.2c1.4 1.1 1.6 1.1 1.3-.3-.3-1.3-19.9-22.5-36.3-39.3-1.7-1.6-5.6-5.8-8.8-9.2-3.1-3.4-6-5.8-6.3-5.3zm-15 36.9c.3.5.1 1.2-.4 1.6-.7.4-.7 1.5 0 3.2.5 1.5.8 3.2.5 3.9-.5 1.3 2 5.4 3.3 5.4 1.8 0 2-3.2.3-4.8-1-1-1.6-1.6-1.4-1.5.5.2 3.2-2.3 3.2-3 0-.3-1-.7-2.2-1-1.7-.5-1.9-.9-1-2 .7-.8.9-1.7.5-2-1-1.1-3.5-.8-2.8.2zm-7 57c.3.6-.1 1.3-.9 1.8-1.5.8-.3 2.2 21.2 24.8 5.1 5.4 9.1 8.6 12 9.7 5 1.9 5.5 1.5 1-.8-1.8-.9-3.5-2-3.8-2.4s-2-1.5-3.7-2.4c-1.8-.9-3.5-2.6-3.8-3.9-.3-1.2-2.1-3.2-4-4.4-1.9-1.3-4.2-3.4-5.1-4.9-1.5-2.2-1.5-2.7-.3-3.6 1.1-.8 1-.9-.4-.4-1.2.4-3.5-1.1-7.4-4.9-5.2-5.1-5.5-5.6-3.8-6.9 1.6-1.2 1.7-1.3.1-1.9-1-.4-1.4-.3-1.1.2zm80.1 25.7c-6 6.7-11.7 10.6-12.4 8.5-.2-.6-1.3-1.1-2.5-1.1-2.2.1-2.1.1.2 1.4l2.4 1.3-2.9.8c-1.6.4-5.8.9-9.4 1.1s-7.8.8-9.5 1.3c-2.7.8-2.4.9 2.7 1 7.1.1 15-1.5 20.3-4.1 5.4-2.8 14.2-10.3 16.1-13.9.8-1.6 1.3-2.9 1.2-2.9-.2.1-2.9 3-6.2 6.6z"/></g><path fill="#f50" stroke="#f50" stroke-width="10" d="M450.5 285.5c-3.8.7-8.5 1.7-10.2 2.3-1.8.6-3.3.9-3.3.6s-1 .1-2.2.8c-1.3.7-3.9 1.4-5.8 1.5-5.8.4-10.1 1-10.7 1.7-.4.3.3.6 1.4.6s3 .9 4.3 2 2.7 2 3.2 2c.4 0 .8.4.8.9 0 1.4-3.7 2-4.9.8-.9-.9-1.3-.6-1.7 1.1-1 3.6-3.6 2.8-3.3-1.1.5-4.9-.5-5.7-4.9-4.5-4.3 1.2-16.2 6.6-16.2 7.4 0 .3.9.3 2-.1 2.9-.9 4.2.2 3 2.6-1.2 2.2-3.3 2.5-5.2.6-.7-.7-1.9-1.2-2.5-1.1-.7.1-1.8.2-2.4.3-.8.1-.7.7.2 1.8 1.3 1.5 1.2 1.5-.8.4-1.7-.9-2.3-.9-2.3 0 0 .6-.7.8-1.6.5s-2.8.2-4.2 1.3c-1.5 1-4.9 3.1-7.7 4.6-2.7 1.6-6.6 4.1-8.5 5.7-1.9 1.5-4.6 3.7-6 4.8-2.1 1.7-2.3 2.1-1 3 1.2.9 1.1 1-.6.5-1.3-.3-2.6.1-3.4 1-1 1.3-1 1.9.4 3.3.9 1 1.3 2.2.9 2.5-1 1.1 3 .8 4.7-.3 1-.6 2-.4 3 .4.8.8 2.4 1.6 3.4 1.7 1.7.4 1.4 1-2.1 5.1-3.2 3.6-4.3 4.4-5.3 3.5s-1.2-.8-.7.4c.4 1.2-.1 1.5-2 1.3-3.4-.3-3.8-1-2.5-3.8 1-2.3.9-2.5-1.5-2.8-2.5-.3-2.6-.4-1-2 2.2-2.1 2.2-5.8.1-5.8-1.6 0-14.4 12.7-19.2 19-1.5 1.9-4.1 5.1-6 7-1.8 1.9-3.6 4.6-3.9 6s-.9 2.7-1.3 3c-1.8 1.4-5 6.9-3.7 6.4 1-.3 1.6.3 1.9 2 .5 2.3.1 2.6-2.8 3.2-3.3.6-3.9 1.7-3.5 5.3.2.7-.2 1-.8.6-.6-.3-1.1-.1-1.1.4 0 .6.5 1.1 1 1.1.6 0 1 .4 1 1 0 .5-.4 1-1 1-1.2 0-6 4.1-6 5.2 0 .4-1.2 3.3-2.6 6.4-2 4.4-2.3 5.8-1.3 6.5 1.6.9 2.3 5.5 1 6.3-.5.3-.7 1.4-.4 2.5.4 1.5 0 1.8-2 1.4-2.2-.4-2.6 0-3.2 2.9-.4 1.8-1.2 3.9-1.8 4.6-.5.7-.6 1.6-.2 2s1 .1 1.3-.7c.2-.7 1.3-2.2 2.3-3.2 1.2-1.2 1.4-1.9.7-1.9-.9 0-.9-.3.1-.9 1-.7 1.8-.5 2.6.6 1 1.3 1.3 1.3 2.3 0 .7-.9 2.2-1.2 3.9-.9s2.4.1 1.9-.6c-.4-.6.4-1.6 1.6-2.3 1.3-.6 2-.8 1.6-.4s0 1.4 1 2.1c1.4 1 1.5 1.6.5 3.1-.6 1-1.6 1.7-2.3 1.5-.6-.1-.9.2-.6.7s-1.7 1.8-4.4 3c-2.8 1.2-5 2.6-5 3.1 0 .6-.8 1-1.7 1-1.4 0-1.5.2-.5.9 2.3 1.4-.2 8-3 8.1-.5 0-.8-.5-.8-1.1 0-.5.5-.7 1.2-.3.7.5.8.3.3-.5-.5-.9-1-1-1.8-.2-.9.9-.8 1.7.1 3.1.9 1.5.9 2.2-.3 3.4-.8.8-1.5 2.2-1.5 3.1 0 1.2-.6 1.6-2 1.2-1.7-.4-2 0-2 2.4 0 2.9 1.4 4 2.3 1.6q.45-1.2 1.2.6c1.1 2.7-.8 8.2-2.8 8.1-1.4-.2-1.7.8-1.6 6 0 3.3.4 9.2 1 13.1.5 3.8 1.1 8.3 1.3 10 .7 4.8 2.4 12.5 4.1 18.5.8 3 1.3 6 1.1 6.6-.5 1.2 1.7 8.2 3.6 11.8.6 1.1 2.4 3.4 4 4.9 2.6 2.7 4 6.6 1.8 5.2-.5-.3-1 .3-1 1.4 0 3 9.3 19.1 10.7 18.6.7-.2 1 .2.7.9-.5 1.3 4.1 9 7.9 13.3 1.8 2 2.1 2.1 4.3.6 2.2-1.4 2.4-1.4 1.8.1-.3.9-1 1.3-1.5 1-2.3-1.4.1 6.2 2.7 8.4l2.8 2.5 1.5-3.2c.8-1.8 2.2-3.1 3.3-3.1 1 0 1.8-.5 1.8-1 0-1.1-2-1.4-5.7-1.1-1.6.1-2.1-.3-1.7-1.3.6-1.7 7.6-3.6 10.4-2.9 1.7.5 1.7.7.5 2-1.6 1.5-2.1 3.8-.7 2.9.5-.3.6.8.4 2.5-.2 1.6-.9 2.9-1.6 2.8-.6-.1-2-.1-3.1 0-1.9.1-1.8.2.3 2.3s2.4 2.2 3.3.5c1.4-2.4 2.9-2.1 2.9.7 0 2.5-3.5 4.3-4.5 2.2-.3-.8-.7-.8-1.1.2-.3.6-1.1.9-1.6.6-.7-.4-.8-.2-.4.4s1.3.9 2 .6c.8-.3 1.6.4 2 2 .7 3 8.5 11.1 11.5 12.1 1.2.3 2.1 1.1 2.1 1.6s.4.9.9.9c.6 0 .9-.9.8-1.9 0-1-.6-1.7-1.2-1.5-1.6.6-3.8-1.3-3-2.6.6-.9 1-.9 1.7.1s1.1 1.1 1.4.3c.7-1.7 4.4-.5 4.4 1.4 0 .8-.7 2.3-1.6 3.3-1.9 2.1-1.2 3.1 5.1 7.1 2.2 1.4 4.6 3.3 5.4 4.2.7.9 1.8 1.6 2.3 1.6.6 0 2.2.8 3.6 1.9 1.5 1 3.9 2.1 5.4 2.5 1.5.3 3.3 1.2 4 1.9 3.6 3.5 26.1 13.1 34.6 14.7 3.4.7 6.5 1.7 6.8 2.1.3.5 2.9.9 5.9.9 2.9 0 5.5.5 5.7 1.1.5 1.4 12.2 2.2 32.8 2.2 18.5-.1 28.2-.8 31.5-2.3 1.1-.5 3.8-1.1 6-1.4 9.9-1.1 28.3-7.7 25.1-8.9-.8-.3-1.6-.2-1.8.4-.2.5-3.2 1-6.8 1.2-6.4.2-6.5.1-6.2-2.2.2-1.3 1.3-3.7 2.5-5.3l2.2-2.9 2.5 3c2.6 3 3.9 3.2 10.3 1.6 1.8-.5 2.7-.3 2.7.5 0 .6-.9 1.4-1.9 1.7-1.6.4-1.7.8-.8 1.8 1.3 1.4 4 .9 3.1-.6-.3-.5.1-.9.8-.9s3.6-1.2 6.3-2.5c2.8-1.4 5.6-2.5 6.3-2.5s2.7-.7 4.3-1.6c2.9-1.5 3-1.6 1.2-3-1.7-1.4-1.6-1.5 1-.9 1.5.3 3.7 0 4.9-.6 2.1-1.1 2.1-1.2-1.2-2.8-4-1.9-5.1-4.1-2.1-4.1 1.2 0 2.1-.5 2.1-1 0-.6.7-1 1.5-1 1.4 0 1.7.5 1.9 3.9.1.8.7 1.6 1.5 1.9s1.1 0 .7-.6c-.3-.5.2-.9 1.2-.8 1.1.1 1.8-.7 2-2.2.3-1.7.8-2.2 2.3-1.7 1 .3 2.9.8 4.1 1.1 1.6.5 2 .3 1.5-1-.8-2 0-2.1 1.9-.2 1.2 1.3 1.1 1.7-.8 3-2 1.4-2.1 1.7-.7 3.1 1.2 1.2 2.2 1.4 4.2.6 1.4-.6 2.8-.7 3.1-.3s-.5.9-1.6.9c-1.1.1-2.2.4-2.5.7-.9.9 3.2 4.6 5.1 4.6 1.1 0 1.7.3 1.3.6-.3.3 1 3.1 3 6.1 1.9 3 3.2 6.1 2.9 6.9-.5 1.2 0 1.6 2 1.3.8-.1 2.4 2.2 2.4 3.3 0 .5-.7.8-1.5.8s-1.5-.7-1.5-1.5c0-2.6-1.6-1.6-3.3 2-1.6 3.4-2.4 9.5-1 8.2 1.2-1.2 3.2 2.7 2.2 4.4-1 1.9 2.5 10.9 4.1 10.9.5 0 1.5 1.1 2.2 2.4s7.2 8.6 14.3 16.2c7.2 7.6 16.4 17.5 20.5 21.9 7.8 8.5 16.2 17.3 18 19 .6.5 3.1 3.2 5.5 6 4.2 4.6 4.6 4.9 5.9 3.2 1.2-1.6 1.4-1.6 2-.2.3.9.2 1.3-.3 1s-1.2-.1-1.6.5c-.6 1 1.7 3.8 12.5 15.3 16.2 17.2 16.8 17.7 18.7 17.1 1.4-.5 1.5-.4.4.4-1.2.9-1.2 1.4.3 3.6.9 1.5 3.2 3.6 5.1 4.9 1.9 1.2 3.7 3.2 4 4.4.3 1.3 2 3 3.8 3.9 1.7.9 3.4 2 3.7 2.3 1.8 2.4 8.8 5.2 13.4 5.3 19.4.5 27.5-2.2 36.6-11.9 7.5-8 9.9-12.6 11.6-22.6 1.7-9.7.8-17-3.2-25.1-2.5-5.1-10.7-14.6-12.6-14.6-.4 0-.8-.4-.8-.9 0-.4-2-3-4.5-5.7-2.5-2.6-4.5-4.5-4.5-4.1 0 .5.8 1.7 1.9 2.8 2.2 2.4 1.8 6.7-.5 4.8-.8-.6-2.5-.8-4-.5-1.9.5-2.5.3-2.2-.6.3-.7-.1-2.3-.8-3.6-.6-1.3-1-4-.7-6.1.3-2.5 0-4.1-1-4.9-1.2-1-1.4-.8-.9 1.3.2 1.5 0 2.5-.7 2.5s-1.1-.6-1-1.3c.1-.6.1-1.9 0-2.7-.1-1.3-.2-1.3-1.1 0-.8 1.2-1 1.2-1 .1q0-1.5-1.2-.3c-1 .8-1.3.4-1.5-1.6-.1-2.8-5-7.5-6.7-6.5-.5.4 0 1 1.1 1.4 2.8 1 3.9 2.9 1.7 2.9-3.1 0-5.4-2.9-4.7-6.1.3-1.9.1-2.9-.6-2.9s-1 .4-.7.9c.4.5-.3.7-1.5.4-1.2-.4-2.5 0-3 .8-.7 1.1-.9.9-.9-.6 0-1.1.9-2.8 2-3.8q3.75-3.15 2.7-.3c-.4 1 0 1.4 1.3 1.3 1.8-.1 1.8-.3.3-1.9-.9-1-2.6-1.8-3.7-1.8-1.2 0-3.4-1-5-2.3-2.6-2.1-2.7-2.5-1.5-4.5s1.2-2.4-.1-3.2c-1-.7-1.8-.5-2.6.5-.9 1.2-1.3 1.1-2.4-1-.7-1.3-1.7-2.2-2.1-1.9-.4.2-1.1-.1-1.5-.7-.5-.9.1-1 2.1-.5l2.7.7-2-2.8c-3-4.2-6.1-7.3-7.3-7.3-.6 0-.8.4-.5.9s-.2 1.2-1.1 1.5c-2.3.9-3.5-1.5-1.5-3 1.5-1.1 1.1-1.9-3.8-7.6-6.9-7.9-9-9.7-11.5-9.8-1.5 0-1.7-.2-.7-.9 1-.6.6-1-1.4-1.5s-2.4-1-1.5-1.5c1-.7.4-1.8-2.3-4.7-2-2.1-3.6-4.1-3.6-4.4 0-.4-.6-.7-1.4-.7s-1.2.6-.9 1.2c.6 1.9-2.4 2.6-3.7.9-.7-.8-1.6-1.4-2.1-1.4-1.4 0-1.1 2.8.4 3.3.6.3.2.6-1 .6-2 .1-2.1-.3-1.9-4.7.5-6.4.5-6.4 1.6-5.7.6.3 1 .1 1-.5 0-1.7-14-14.9-17.4-16.4-5.7-2.5-12.5-3.7-14.6-2.6-1.1.6-3.6 1.1-5.6 1.2-2.9.1-4.2-.5-6.8-3.3-7.4-8-13.6-15.8-13.6-16.9 0-.7 1.3-3.5 3-6.2 3.5-5.6 3.5-5.8 1.5-5.8-2.7 0-1.6-1.6 2-3 2.6-1 3.5-2 3.5-3.7 0-1.3.5-2.3 1.1-2.3.5 0 .7-.5.3-1.2-.5-.7-.3-.8.5-.3 2.1 1.3 6.1-3.4 5.5-6.4-.4-2-.3-2.2.5-1.1.8 1.2 1.2 1 2-1.2.5-1.4 2.6-6.1 4.6-10.4 4.9-10.7 6.1-13.2 7.9-17.9 2.1-5.5 5.3-17.2 6-22 .4-2.2.8-4.9 1-6 2.2-12.3 2.8-21.8 2.3-37-.4-9.4-1.1-18.8-1.7-21s-1.3-6.5-1.6-9.5c-.4-3-1-6.2-1.5-7.1-.4-.9-1.6-4.9-2.5-9-2-8.9-3-11-4.9-10.3-1.1.5-1.3-.1-1-2.5.2-1.7 0-3.1-.5-3.1s-.8-.8-.8-1.8c.2-2.9-8.4-19.4-10.4-20-1-.2-1.8-1.3-1.8-2.3 0-2.5-4.7-9.9-6.2-9.9-.6 0-.9-.3-.5-.6 2.2-2.2-30.5-38.4-34.7-38.4-1 0-2.4-.7-3.3-1.5-.8-.8-1.9-1.3-2.4-.9-.6.3-1.6.1-2.4-.6-.8-.6-1.6-.7-1.9-.2-.7 1.2 2.2 2.6 4.7 2.3.9-.1 1.7.3 1.7.9s-.4.8-1 .5c-.5-.3-1 .1-1 .9 0 1.4 1.9 2.1 4.4 1.7.9-.2 2.6 1.8 2.6 3.1 0 .4-1.8 1.2-4 1.8-3.7 1-6.4 3-4 3 .6 0 .8.4.5 1-.4.6-1.8.4-3.7-.6-2.7-1.4-3-1.9-2.5-5.1.7-3.8-.8-8.7-2.2-7.8-.5.3-1.2.1-1.5-.4-.4-.5-.2-1.2.3-1.6.6-.3.7-1.3.4-2.1-.5-1.4-.1-1.5 2.5-1 4 .9 4.7-.6 1.2-2.6-2.7-1.6-3-1.5-6.2.8-1.8 1.4-3.2 3.2-3 4.1.2.8-.1 1.3-.5 1-.5-.3-1.5-.2-2.3.3-.9.6-1.9.3-2.8-.8-1-1.3-1.5-1.4-1.8-.5-.8 1.8-3.6 1.6-6-.3-1.3-1.1-1.5-1.7-.6-2 2.3-1 1.2-2.4-2-2.4l-3.3-.1 4-1.7c3.7-1.7 4.2-1.7 7-.3 1.6.9 3.1 1.9 3.3 2.2.4.9 6.2-2 6.2-3.1 0-1-3.5-2.3-7-2.6-1.4-.2-3.9-.5-5.7-.8-2.2-.3-3.3 0-3.7 1-.3.8-1.2 1.4-2 1.4-1.3 0-1.3-.4.2-3 .9-1.6 2-3 2.5-3 1.8 0 .4-2.1-2.4-3.5-2.4-1.3-3.7-1.4-6.1-.6-1.7.6-3.2 1-3.3.9-.1-.2-.8-1.3-1.4-2.6-.6-1.2-1.8-2.2-2.5-2.2-.8 0-1.6-.6-1.9-1.3-.6-1.5-8-3.5-15.4-4.1-4.9-.4-6.7.4-4.3 1.9.6.4.7 1.1.4 1.7-.5.7-.1.9.9.5 2.1-.8 2.2 1.1.2 3.7-1.5 2-1.5 2-1.5 0-.1-2.8-4.7-5.7-9.4-5.8-3.6-.1-4.1-.4-3.8-2.2.3-2.2-2.1-3.9-3.9-2.8-.5.3-.9-.2-.9-1.1 0-1.4-2.2-1.5-18.7-1.4-10.4.1-21.9.7-25.8 1.4zm9.3 4.3c-1.3.9-2.5 1.9-2.8 2.4-.3.4-2.1.9-4 1-3.1.3-3.4 0-3.5-2.2 0-2.3.5-2.5 5-3 6.6-.7 8.2-.2 5.3 1.8zm69.2 10.9c1.5 1.8 1.2 3.3-.5 2.7-.8-.4-1.5-1.2-1.5-2 0-2.5-1.5-1.5-1.6 1.1-.1 1.4.1 2.3.6 2 .4-.2 1.6.3 2.6 1.1 1.8 1.5 1.8 1.5-.8 1.1-1.9-.3-2.8 0-2.8.9 0 .8-.4 1.4-1 1.4-.5 0-1-1.8-1-4s-.4-4-1-4c-.5 0-.7.7-.4 1.5.4.9 0 1.5-.9 1.5-2.4 0-3.3-2.2-1.3-3.4 1-.6 2.7-1.9 3.9-2.9 2.1-1.8 2.2-1.8 3.4 0 .7 1 1.7 2.3 2.3 3zm-68.2 1.5c.2.4 1 .8 1.8.8s1.4.6 1.3 1.2c-.1.7.3 2.5 1.1 4 1.1 2.3 1 2.9-.3 4.3-1.8 1.8-1.1 4.9.9 4.1 2.9-1.1 1.3.6-1.8 1.9s-2.3 1.4 10.7 1.5c7.7.1 14.9.4 16 .6 5.9 1.3 12.8 1.6 12.1.6-.4-.6.5-1.7 2.2-2.6 2.6-1.3 3.1-1.3 4.5.1 1.5 1.6 1.5 1.8 0 3.5s-1.5 1.8.8 2c3.6.2 4.1.3 8.3 2.1 2.1.9 4.2 1.7 4.7 1.7.4 0 4.7 1.8 9.6 4.1 9.1 4.2 10.8 5 14.4 7.1 1.7 1 2.3 1 2.6 0 .7-1.7 4-1.5 4.7.4.3.9 1.2 1.4 1.8 1.2 1.5-.5 3 .8 4.7 4.1.8 1.5.9 2.1.2 1.7-2.4-1.5-.9.5 4 5.3 2.9 2.8 5.5 5.1 5.9 5.1.6 0 5.9 5.3 16.3 16.2.9 1 1.4 1.8 1 1.8s.5 1.2 1.9 2.7c1.4 1.6 4.5 6.4 6.8 10.8s5.2 9.3 6.4 11c1.2 1.6 3.2 6.1 4.5 10 1.3 3.8 3 8.2 3.7 9.6s1.5 4.4 1.8 6.6c1.3 10.8 4.2 18.1 7.5 18.5 3.4.4 3.8 4.1.6 5.8-2.5 1.3-3.6 6-1.5 6 .6 0 1-.4 1-.9 0-1.7 2.9-2 5.5-.7 1.4.8 3.8 3.2 5.2 5.4 1.7 2.7 3.2 3.8 4.2 3.5 1.3-.4 1.3-.3.2.5-.8.6-1.1 1.8-.6 3.1.5 1.7.2 2.1-1.5 2.1-1.2 0-3-.4-4-1-1.5-.8-1.9-.5-2.4 1.6l-.7 2.6-1.9-2.3c-1.3-1.4-2-3.7-2-6.3s-.3-3.6-.9-2.8c-.4.8-1.2 1.2-1.7 1-1.3-.5-1.7 10.8-.4 13.2.9 1.6.8 2.5-.1 3.6s-.9 2.1.2 4.5c1.2 2.9 1.3 3 2.6 1.3 1.2-1.6 1.3-1.6 1.3-.1 0 .9-.4 1.7-.9 1.7-.6 0-1.6 1.2-2.4 2.7-.7 1.6-1.9 2.7-2.7 2.5-1.1-.3-1.1 0 0 1.2 1 1.3 1 1.6-.4 1.6-1.2 0-1.6.9-1.6 3.4 0 1.9-.4 3.8-1 4.1-.5.3-1 1.7-1 3.1q0 2.55-1.2 1.8c-.8-.5-.9-.2-.5.9.3.9.2 1.9-.3 2.2-1.7 1-1.1 3.6.6 3.3 1-.2 1.9.2 2.1.9.3.8-.4 1-2.2.7-2.6-.5-2.6-.3-2.2 3.9.2 3.2 0 4.4-1 4.4s-1.3-.8-.9-2.6l.6-2.6-1.4 2.5c-.8 1.4-1.8 4.2-2.1 6.2-.4 2.1-1 3.8-1.4 3.8-.3 0-1.5 1.7-2.6 3.7-1.1 2.1-2.9 5.3-4.2 7.2-1.4 2.3-1.9 3.9-1.3 4.6.5.6.7 2.1.3 3.3-.4 1.7-.9 2-2.3 1.2-2.2-1.2-4.8 1.3-3.3 3.2 1.1 1.5 1 3.5-.1 6-1.3 3 0 4.9 2.9 4.2 1.9-.5 2.5-.2 2.5 1.1 0 1.2-.5 1.5-2.1 1-1.5-.5-2.2-.2-2.6 1.3-.6 2.3-3 3.2-8.7 3.2-3.1 0-3.7.3-3.2 1.6.5 1.4.4 1.5-.8.5s-1.3-.9-.9.8c.3 1.3 0 2.2-.8 2.2-4 .4-6.5.3-6.9-.3-.3-.4-1.2-.3-2 .2-1.2.8-1.1 1 .5 1.1 1.1.1 2.3.1 2.8 0 1-.2.8 1.1-.6 3.4-1.3 2.1-3.7 3.1-3.7 1.6 0-.5-.9-1.1-2.1-1.4-1.3-.4-3.9.7-7.6 3.3-3 2.2-6 4.1-6.6 4.3-.9.3-.9 1 .1 2.6 1.6 2.7 1.5 3.1-.4 3.1-.8 0-1.2-.5-.9-1 .3-.6.4-1 .1-1-.2 0-1.2-.3-2.2-.7-1.3-.5-1.5-.3-.9.7q.75 1.35-.3.6c-.6-.4-2.2 0-3.4.7-1.3.8-3.9 2-6 2.6-2 .7-6.2 2.5-9.4 4.1-3.2 1.7-6.3 3-6.9 3-.7 0-2.6.7-4.4 1.6-1.7.9-3.8 1.3-4.6 1.1-1.4-.6-7.4.7-11 2.3-5.3 2.3-40.4 2.8-48.5.6-1.4-.3-3.8-.8-5.5-1-1.6-.1-6.4-1.3-10.5-2.5s-9.3-2.7-11.5-3.3-6.4-2.4-9.3-4c-2.9-1.5-6.2-2.8-7.3-2.8-1 0-1.9-.5-1.9-1 0-.6-.6-1-1.3-1s-2.2-.8-3.3-1.9c-2.8-2.6-5.9-4.1-8.4-4.1-1.3 0-1.9-.4-1.4-1.2.5-.7 0-.9-1.4-.6-1.5.4-1.9.2-1.5-.8s0-1.2-1.3-.7-1.6.3-1.1-1c.4-1.2-.2-2.1-2.1-3.1-1.5-.8-3.5-2.5-4.6-3.7-1.8-2.1-1.9-2.1-3.2-.5-.7 1-1.7 1.5-2.3 1.1-1.4-.8-1.4-3.2 0-3.7.6-.2.2-1.3-.9-2.6-1.8-2-2.3-2.1-4.7-1-2.1.9-3.1.9-4.6 0-2.1-1.4-4.3-.7-3.3 1 .3.5-.2.9-1.2.8-3.8-.4-4.6 0-4.1 2 .3 1.3 0 2-.8 2-1.9 0-3-2.1-1.6-2.9.6-.4 1.3-2.2 1.4-3.9.1-2.4.7-3.2 2.2-3.3 1.1 0 1.4-.3.8-.6-.7-.2-1.3-1.3-1.3-2.2 0-1-.7-1.8-1.5-1.8s-1.5.9-1.5 1.9c0 1.4-.6 1.7-2.2 1.4-1.3-.3-4-.8-6-1.1-2.1-.3-3.8-1.1-3.8-1.7 0-.5.6-.8 1.4-.5.7.3 1.8.1 2.4-.5s2.8-1.2 4.9-1.5c2.1-.2 4.2-.8 4.7-1.3 1-1-1.5-6.5-3.1-6.5-.6 0-1.5-.3-1.9-.8-.4-.4-.2-.7.5-.7s.9-.5.5-1.1c-.3-.6 0-1.5.7-2 1.2-.7 1.1-1.1-.3-2.6-2.1-2-4.7-.5-3.2 1.9 1.4 2 1.2 6.2-.3 7.6-1.9 2-4.1-.1-4.5-4.1-.2-2.2-.9-3.3-2.2-3.5-1.1-.3-2.6-1.1-3.4-1.9s-2.1-1.2-2.9-.9c-1.1.4-1.1.1-.3-1.4.6-1.1 1.9-2 3-2 1 0 2.2-.6 2.6-1.2 1.3-2.1 1.1-4.8-.3-4.8-.7 0-1.3-.7-1.3-1.5 0-1.7.9-1.9 3-.5 3.4 2.1 3-2.7-.8-8.8l-1.4-2.2-1.9 2.1c-1.8 2.1-3.9 1.8-3.9-.5 0-.8.9-1.6 2-1.9 2.1-.5 2.8-4.1.9-5.2-.6-.4-.8-1.3-.5-2 .6-1.6-2.5-11.5-3.6-11.5-.4 0-.8-.5-.8-1.1 0-.7-.8-1.8-1.7-2.6-1-.8-1.3-1.2-.6-.8 2 .9 2.4-3.5 1-9-1.1-3.9-1.8-4.9-3.2-4.7-1.2.3-1.6-.1-1.2-1.1s-.4-2.2-1.9-3.1c-2.8-1.9-3-2.9-.9-5 .8-.8 1.5-2.6 1.5-4 0-2.3.9-3.1 3.3-2.7 1.1.2.4-3.2-.8-4.2-.6-.4-.5-1 .4-1.6s1-1.1.2-1.5c-.6-.4-1.1-1.7-1.1-2.9s-.9-2.8-2-3.5c-2.9-1.8-2.5-2.9 1-2.8 1.9.1 3 .6 3 1.5 0 3.2 1.1.1 1.5-4 .4-5.5 2.3-15.4 3.7-19.4.6-1.7 1.3-4.2 1.5-5.7.4-2.3.2-2.7-1.5-2.3-2.6.5-3.6-2-1.6-3.9 1.8-1.9 4.5-1 3.7 1.1q-.75 1.65.6.9c.7-.5 1-1.4.7-2.1-.3-.8.2-1.9 1-2.6.9-.7 1.3-2.1 1.1-3.1-.3-1-.2-1.6.3-1.3.4.2 2.1-2.6 3.8-6.4s3.5-7.2 4-7.5.8-2.3.6-4.4c-.2-4 1.1-6.1 6.1-9.7 1.6-1.2 1.6-1.4.3-.9-1.7.6-1.7.4-.3-2.9.8-1.9 1.2-3.7.9-4-.4-.3.8-.5 2.6-.5 1.7.1 2.6.4 2 .8-.8.5-.8 1-.2 1.4 1 .6 5.2-2.6 5.2-4.1 0-1.2 16.6-18.3 17.8-18.3.5 0 2.6-1.7 4.8-3.8 3.5-3.3 5.8-4.8 10.4-6.6.8-.3 4.2-2.2 7.5-4.1 9.5-5.4 13.4-7.3 16.6-8 1.7-.4 3.3-1.3 3.6-2 .2-.8 1.2-1.1 2-.8 1.2.5 1.4.3.8-.6-.6-1-.2-1.1 1.6-.6 1.3.4 2.1.4 1.7 0-.8-.8 1.5-3.5 3.1-3.5.5 0 2.6-1 4.6-2.1l3.6-2.2.6 2.2c.4 1.6 1.3 2.1 3.7 2.1 1.8 0 3.6-.4 4.2-.9.5-.5 2-1.1 3.3-1.3 2.4-.3 2.4-.4.7-2.1-1.6-1.5-1.6-1.7-.1-1.7.9 0 2.4-.7 3.2-1.6 1.4-1.3 1.4-1.7.2-2.5-.8-.5-2.9-.8-4.6-.5-3.2.5-3.3.4-3.3-3.4 0-2.7.6-4.2 1.8-4.9.9-.6 1.3-1.1.7-1.1-.5 0-.3-.4.5-.9 1.6-1.1 7.3-.3 7.8 1.1zm-63.9 7.4c.2.2-.4 1-1.3 1.9-2.1 2.2-2 3.5.3 3.5 1.1 0 2.3.4 2.6 1 1 1.6-8.1 1.2-9.4-.4-.9-1.1-.9-1.6-.1-2.1.7-.4 1-1.6.7-2.6-.3-1.1-.1-1.7.4-1.3.5.3.9 0 .9-.6 0-.9 4.6-.5 5.9.6zm19.9 8.1c1.8.8 4.6 1.5 6.2 1.5 3 .1 3.9 1.1 1.9 2.3-.6.4-.8 1.3-.5 2.1s.2 1.4-.2 1.4-1.8.3-3.2.6c-2.1.5-2.2.4-.7-.6 3-1.9 1.9-2.7-3.8-2.8-3.1 0-6.2-.5-7-1.2-1.2-1-1.5-.9-1.6.6-.1 1.7-.2 1.7-.6.1-.7-2.8-2.3-1.9-2.3 1.3 0 1.6-.3 3.1-.7 3.1-3.7.6-5.5.4-6.4-.7s-.5-1.6 2-2.5c1.7-.6 3.2-1.5 3.2-2 .1-.5.3-1.4.4-1.9.1-.6.3-1.4.4-1.9.1-1 5.6-1.9 8.1-1.3.8.2 3 1.1 4.8 1.9zm-31.2 3.8c-2.1 3.2-2.1 5.7.1 5.3s4.1 6.1 2.1 7.3c-3.9 2.5-7.7-.3-4.3-3.1.8-.7 1.5-1.6 1.5-2.1s-.7-.9-1.5-.9c-.9 0-1.5-.9-1.5-2.3-.1-2-.2-2-1.1-.4-.6 1-.8 2.5-.5 3.3s.1 1.4-.5 1.4-.9-1.9-.7-4.7c.3-4.9.8-5.3 7.2-6.2.4 0 .1 1-.8 2.4zM592 333.8c0 1.6.3 3.2.7 3.5 1.4 1.5 1.2 5.7-.3 5.7-.9 0-1.2.5-.8 1.2s-.2.5-1.3-.5c-1.4-1.2-1.9-2.7-1.7-4.6.2-1.7-.3-3.4-1.1-4.1-1.9-1.6-.2-4 2.6-4 1.4 0 1.9.7 1.9 2.8zm40 46.2c0 1 .3 2.5.6 3.4s.1 1.6-.4 1.6c-.6 0-1.4-.9-1.7-2s-1.2-2-2-2c-.7 0-1.6-.6-1.8-1.3-.3-.6-.6.2-.6 2-.1 3-2.2 6.3-4.1 6.3-.5 0-.7-1.2-.5-2.8.3-1.5.7-3.8.9-5.2.3-1.4.5-2.5.5-2.5.1 0 2.1.1 4.6.3 3.6.3 4.5.8 4.5 2.2zm8.7 104.6c.9.9 1.7 3.2 1.8 5.2.1 2.1.6 5.2 1 7.1.8 3.2.7 3.4-1.3 2.9-1.8-.5-2.2-.2-2.2 1.7 0 1.3-.4 2.7-1 3-.6.4-1-.7-1-2.4s-.4-3.1-.9-3.1c-.4 0-.6 1.1-.3 2.5.3 1.8 0 2.5-1.1 2.5-.8 0-3.4.9-5.8 1.9-2.4 1.1-4.7 1.7-5.1 1.5-.4-.3-.8-2.5-.8-5 0-3.9-1.3-6-2.2-3.4-.1.5-.9.6-1.6.1-.7-.4-1-1.5-.6-2.5.5-1.3 1.7-1.6 5.5-1.5 4.8.3 7.9-1.2 7.9-3.6 0-.7.7-1.5 1.5-1.9.8-.3 1.5-1.2 1.5-2.1 0-.8.8-1.5 1.8-1.6 1 0 1.2-.3.5-.6-.7-.2-1.3-.9-1.3-1.4 0-1.4 2-1.1 3.7.7zm-334.9 20.9c-.4 1.7-.1 2.5.8 2.5.8 0 1.4.9 1.4 1.9 0 1.5.6 1.9 2.7 1.8 1.9-.1 2.8.3 3.1 1.7.2 1.1 0 1.6-.7 1.2-1.8-1.1-1.3.5.7 2.1 1.5 1.3 1.5 1.4-1.1 1-2-.3-3.2.1-4.2 1.5-1.7 2.6-3.8 1.3-3.2-1.9.4-2.4-.6-6.8-2.4-10.5-1.3-2.5-1.1-3.1.6-2.4.8.3 1.5.1 1.5-.4 0-.6.3-1 .6-1 .4 0 .4 1.1.2 2.5zm8.2 28.1c0 1.2.7 2.7 1.5 3.4s1.2 1.6.9 2.2c-.3.5 0 1.6.7 2.4 1.9 2.3-.5 4.2-2.6 2-.9-.9-1.4-2-1.1-2.5s-.1-1.4-.9-2.1-1.5-2.3-1.5-3.6c0-1.2-.5-2.6-1.2-3-.7-.5-.5-1.1.7-2.1 2.2-1.5 3.5-.3 3.5 3.3zm249.9 47.1c-.4 2.3.4 3.1 3.4 3.8 5.5 1.3 6 1.4 9.6 1.7 2 .1 4.2.8 4.9 1.5 1.4 1.4 1.6 3.7.2 2.8-.5-.3-1-.2-1 .2 0 1.3-5.5 4.3-7.8 4.3-1.1 0-2.3.6-2.6 1.2-.3.7-.3.3 0-1 .6-2.6-1.6-3-3.9-.7-1.3 1.2-1.5 1.1-1.3-1 0-1.4.5-2.5 1-2.5s.6-.3.3-.7c-.4-.3-1.6.2-2.7 1.2-2 1.8-2.1 1.8-3.5-.1-.8-1-1.5-2.7-1.5-3.7 0-.9-.3-1.6-.7-1.5-.5.2-.9-.2-1-.7-.1-.6.7-.8 1.9-.7 1.5.3 1.9 0 1.5-1.1-.3-.8 0-2 .6-2.6 1.3-1.3 2.8-1.5 2.6-.4zM511.7 610c.3 1.3 1.4 2 2.9 2 1.2 0 2.6.4 2.9 1 .4.6-.7 1-2.4 1-2.1 0-3.1.5-3.1 1.5 0 1.8-1.2 1.9-2.7.4-.6-.6-2-.8-3.1-.5-1.4.5-1.8 1.3-1.4 3.1.2 1.4 1.1 2.5 1.8 2.5.8 0 1.4.9 1.4 2s-.5 2-1.1 2c-.7 0-.5.9.5 2.4 1.5 2.3 1.4 2.5-.4 3.1-2 .6-4.6 4.3-4.2 5.7.3 1.2-.5 1-4-1.2-2.2-1.3-2.7-2-1.5-2 1.9 0 2.1-.8.8-2.8-.8-1.3-2.8-2-6.4-2.1-1.4-.1-1.8-.8-1.5-2.9.3-2.5.6-2.7 4.1-2.5 4.2.3 4.7-.3 1.5-1.7l-2.3-.9h2.3c2.1-.1 2.6-1 2.3-3.8-.1-.6 1.7-2.7 4.1-4.7 4.7-4 8.7-4.7 9.5-1.6zm181.1 40c4.9 1.9 3.9 4-2.1 4.4-1.7.1-3.3.8-3.5 1.4-.6 1.9-2.2 1.4-2.2-.8 0-1.1-.6-2-1.2-2.1-.7 0-.3-.5 1-1.2 1.5-.7 2.2-1.7 1.9-2.8-.4-1.4-.1-1.6 1.2-.9.9.4 3.1 1.4 4.9 2zm-48 1.8c.4 1.2-3.3 5.2-4.8 5.2-.5 0-1-.6-1-1.4 0-1.4-3.9-2.5-9.4-2.7l-3.1-.1 3.4-1c2.4-.6 4.2-.6 5.8.1 3.1 1.4 3.3 1.4 2.7-.4-.5-1.2.1-1.4 2.7-1.1 1.8.2 3.5.8 3.7 1.4zm12.8 1.2c1 0 1.4 1.1 1.3 3.7-.1 2.1-.3 3-.6 2-.2-.9-.9-1.5-1.4-1.2-.5.4-.5 1.5.2 2.7.9 1.6.8 2.3-.2 2.9-1.9 1.2-3.7 1.1-4.1-.2-.7-2.2.5-7.9 1.7-7.9.7 0 1.1-1 .9-2.8-.2-1.5-.1-1.9.2-1 .3 1 1.2 1.8 2 1.8zm39.7 43.7c.4.3.2 1.2-.5 2-.9 1.1-.7 1.5 1 2 1.2.3 2.2.7 2.2 1 0 .7-2.7 3.2-3.2 3-.2-.1.4.5 1.4 1.5 1.7 1.6 1.5 4.8-.3 4.8-1.3 0-3.8-4.1-3.3-5.4.3-.7 0-2.4-.5-3.9-.7-1.7-.7-2.8 0-3.2.5-.4.7-1.1.4-1.6-.7-1 1.8-1.3 2.8-.2z"/><path fill="#ffffd4" stroke="#ffffd4" stroke-width="10" d="M457.9 323.1c-32.9 4.3-61.9 18.4-84.4 41.3-21.5 21.9-33.5 44-39.4 73.2-6.5 31.7-2 63 12.9 91.8 6.7 12.8 9.5 16.9 21.3 30.5 17.4 20.2 46.4 36.8 76 43.6 10.3 2.4 28.8 3.5 41.2 2.4 25.2-2 52.8-12.4 73-27.5 20.9-15.5 36.7-35.2 46.1-57.6 8.5-20 10.9-32.9 10.9-57.8-.1-17.7-.3-20.5-2.7-30-9.7-38.5-29.5-66.8-61.4-87.6-27.3-17.8-62.7-26.3-93.5-22.3zm38.1 22.3c34.6 6.8 60.7 23.9 80.2 52.7 4.8 7.2 14.6 28.9 15.9 35.4 5 25.1 5 41-.1 61.5-.6 2.5-1.6 6.3-2.1 8.4-.5 2.2-3.5 9.1-6.6 15.4-7.7 15.6-19 29.7-33.9 42-7.8 6.6-29.9 17.6-41.4 20.6-4.9 1.4-9.3 2.7-9.8 3-3.3 2-31.8 2.4-43.9.6-42.5-6.5-81.5-38.6-95.9-79.1-5.3-15.2-6.6-22.9-6.6-40.9 0-19 .2-20.2 6.4-38.4 5.1-15 9.2-23 17.9-34.4 7.7-10 8.7-11.1 17-18.3 11.8-10.3 20.4-15.6 33.9-21.1 9.3-3.9 27.5-8.4 34.5-8.7 3.3-.1 6.2-.5 6.5-.8.9-.9 20.1.5 28 2.1z"/><path fill="#aad4d4" stroke="#aad4d4" stroke-width="10" d="M462.5 344.6c-9.5 1.3-20.5 3.8-20.5 4.5 0 .5-.7.6-1.5.3-.8-.4-1.5-.1-1.5.6s-.7 1-1.4.7c-2.3-.9-20.6 6.7-20.6 8.5 0 .5-.4.6-1 .3-.5-.3-1-.1-1 .5s-.4.9-1 .5c-.5-.3-1.8.3-2.9 1.4s-2.2 1.7-2.5 1.3c-.3-.3-.6 0-.6.6 0 .7-.7 1.2-1.5 1.2-.9 0-1.8.7-2.1 1.5-.4.8-.9 1.3-1.3 1-.4-.2-2.3 1-4.2 2.8-1.9 1.7-3.7 3.1-4 3-.4-.1-3.4 2.8-6.8 6.5-8.8 9.6-9.9 11-9.5 11.5.3.2-.7 1.2-2.1 2.1s-2.3 2.1-2 2.6c.4.6.2 1-.3 1-.8 0-6 7.8-9.3 14-.7 1.4-1.2 3.7-1.1 5.2.1 1.4-.5 3.4-1.4 4.3s-1.8 3.3-2 5.3c-.2 3.3-.1 3.4.8 1.4 1.4-2.7 3.5-2.9 4.3-.2.4 1.3 1.5 2 3 2 6.1 0 8.7 3.1 8.9 10.7.1 2.5.6 3.3 2.3 3.8 1.4.3 2.3 1.3 2.3 2.5 0 1 .4 2.1 1 2.5s.6 1.5-.1 3.2c-.7 1.9-.5 4 .6 7.8.8 2.9 2.4 9.9 3.5 15.6 1.6 8.6 3.1 12.7 8.5 23.4 6.7 13.3 12.5 21 22 29.6 22.8 20.5 53.8 30 85.2 25.9 6.9-.9 18.7-4.4 23.5-7.1 1-.5 2.2-.9 2.8-.9.8 0 14.6-9 18.4-12.1.6-.5 2.5-2 4.2-3.4 4.3-3.4 7.6-3.2 10.8.6 1.9 2.2 2.6 4.2 2.6 7.1 0 3.3.3 3.8 1.3 2.9.8-.6 1.7-.8 2.1-.4s.4 0 .1-.8c-.3-.9.2-2.2 1.1-3 1.6-1.2 1.7-1.2.9.1-.5.9-.5 1.2.1.7.5-.5.9-1.2.9-1.6 0-.3 1-1.7 2.2-3s2-2.8 1.7-3.3c-.3-.4-.1-.8.4-.8s1.7-1.2 2.7-2.6c.9-1.5 1.2-2.3.6-2-.7.5-.9.1-.5-.8.3-.9 1-1.4 1.4-1.1.8.5 4.5-7.3 7.9-16.5 3.1-8.7 5-17.2 4.5-20.5-.4-2.3-.3-2.7.5-1.5.9 1.2 1.1 1 1.1-1 .1-1.4.3-8.1.5-15s0-15-.5-18c-.6-3-1.2-6.6-1.4-8-.8-6.5-1.9-9.9-2.8-9.4-.6.4-.8-.1-.4-1.4.7-2.1-4-15.1-5.9-16.4-.5-.4-.6-.8-.1-.8s.1-.9-.9-2-1.5-2-1.1-2-.3-1.8-1.5-4c-1.3-2.2-2.7-4-3.1-4-.5 0-.7-.4-.4-.8.6-1.1-8-13.2-9.4-13.2-.6 0-.9-.4-.7-.8.2-.9-13.5-15.4-14-14.8-.2.2-1.9-1.2-3.9-3-1.9-1.9-4.2-3.4-5-3.4s-1.4-.4-1.4-.8c0-1.5-15-9.5-24.3-13-13.6-5.1-24.5-7.2-39.2-7.6-7.1-.3-14.3-.2-16 0z"/><path fill="#80d4d4" stroke="#80d4d4" stroke-width="10" d="M360.6 429.2c-.8 2.4-2.5 7-3.7 10.3-3.2 8.7-4 33.4-1.3 43.5 1 3.9 2.1 7 2.5 7s.6 1.4.4 3.1c-.3 1.7.2 4.7 1 6.6.8 2 1.5 4.3 1.5 5.2s1.3 4.1 3 7.1c1.6 3 2.9 6.1 3 6.8 0 .7.5 1.8 1.1 2.5.5.7 2 2.8 3.2 4.7 1.6 2.7 2.2 3.1 2.5 1.7.2-.9.8-1.7 1.3-1.7 1.2 0 1.1 1.4-.2 2.7s2.9 9.3 4.9 9.3c.7 0 1.7 1.1 2.2 2.5s1.4 2.5 2 2.5.8-.5.5-1c-.3-.6-.1-1 .5-1 .7 0 .9.8.5 1.9-.7 2.3 7.1 11.1 9.8 11.1 1 0 2.2 1.1 2.7 2.4.5 1.5 2 2.7 3.8 3.1 1.7.3 3.2 1.4 3.5 2.4.2 1 2.9 3 5.8 4.5 3 1.5 7.4 3.8 9.7 5.1 2.4 1.3 10.4 4.5 17.7 7 11.8 4 15 4.6 26.7 5.4 13.4 1 14.6 1 22.8-.3 11.8-1.9 21.1-4.3 28.5-7.6 2.2-.9 5.8-2.4 7.9-3.1 2.2-.8 4.1-2.2 4.4-3.2.2-1 1-1.6 1.6-1.4 1.6.6 16-7.5 15.1-8.5-.7-.6 1.5-2.5 3.4-3 2.2-.5 6.1-4 6.1-5.5 0-.7.6-1.3 1.3-1.3s3-1.7 5-3.8c4.7-4.8 5.1-10.3 1.1-15.1-3.2-3.8-6.5-4-10.8-.6-1.7 1.4-3.6 2.9-4.2 3.4-3.8 3.1-17.6 12.1-18.4 12.1-.6 0-1.8.4-2.8.9-4 2.2-15.4 6.1-17.7 6.1-1.3 0-2.6.4-3 .9-.3.5-2.1.7-4 .4-2.3-.4-3.5-.2-3.5.6 0 .6-.6 1.1-1.4 1.1s-1.6.5-1.8 1.1c-.6 1.7-16.8 1.3-19.7-.6-1.1-.6-6.1 1.5-6.1 2.7 0 .4.9.8 2 .8 2.1 0 2.5.7 1.1 2.8-.6 1-1 1-2.1-.2-.7-.9-1.5-1.4-1.9-1.2-.4.3-1.7-.4-3-1.3-1.9-1.5-2.2-2.1-1.2-3.8.9-1.8.7-2.2-1.5-2.7-1.5-.4-2.4-1-2-1.3.3-.4-2.5-1.6-6.2-2.9-13-4.2-27-12.3-35.8-20.6-2.3-2.2-5-4.1-6-4.3-1-.1-1.8-.8-1.6-1.5.1-.6-1.6-3.2-3.9-5.8-2.2-2.6-6.8-9.6-10.1-15.7-3.3-6-5.7-10.1-5.3-9 1.2 3.5 1 4.8-.7 5-1 .2-1.8-.3-1.8-1 0-2.2-2.3-2.3-4-.2-1.3 1.6-2 1.8-3.7.9-1.1-.6-2.3-.9-2.6-.6-.5.5-2.8 1.1-4.9 1.3-.5.1-.8.6-.8 1.3 0 .6.3.8.6.5.4-.4 2 .3 3.5 1.4 1.6 1.1 2.9 1.8 2.9 1.5s1.3 0 3 .5c2.4.9 3.3.8 4.6-.5.8-.9 2.1-1.6 2.8-1.6s1.7-.9 2.2-2c.8-1.8 1.3-1.2 4.3 4.4 3.1 6.1 3.3 6.7 2 9.3-1.6 3.1-6 4.3-8.5 2.3-1.1-1-1.4-1-1.4 0 0 .8-.3 1-.6.7-.4-.4-.1-1.4.7-2.3 1.1-1.4 1-1.9-1.1-3.5-3.5-2.6-4-2.4-4 1.6 0 2.4.5 3.5 1.5 3.5 2.1 0 1.9 2-.2 2.1-1.1 0-1.3.3-.5.6.6.2.9.9.6 1.5-.3.5.4 1.2 1.6 1.5 1.6.4 1.8.8.8 1.4-.9.6-.7.9.9.9s2 .5 1.6 2.1c-.5 1.6-.8 1.8-1.5.7-.7-.9-.8-.5-.5 1.4.2 1.6.1 2.8-.2 2.8-1.1 0-8.6-12.3-12.8-21-3.6-7.5-4.8-10.7-5.9-15.8-.3-1.6 4.4-1.6 7.7.2 2.3 1.2 2.8 1.1 5.4-1 2.2-1.7 3.1-2 3.7-1.1s.8.8.8-.2c0-.8.8-2.4 1.7-3.5 1-1.2 1.4-1.8.9-1.4s-1.6.2-2.4-.5c-1.3-1-1.5-.9-1 1 .5 1.8.2 2.3-1.4 2.3-1.8 0-1.9-.2-.7-1.7 1.1-1.3 1.1-1.7.2-2-.7-.3-1.3-1.8-1.3-3.4s-.4-2.9-.9-2.9-.8 1.4-.7 3.1c.1 1.8-.3 3.3-1.1 3.6-1 .4-1.1.9-.2 1.9 1.3 1.6-1.3 2.3-7.8 2.2-4.9-.1-4.7.2-6.4-14.6-1.1-9.5-1-10.5.7-13.9 1.1-2.1 3.2-4.1 5.2-5 2.9-1.2 3.7-1.2 6.7.3 1.9.9 3.7 2.5 4.1 3.6 1 3.4 1.4 1.4.4-2.4-.7-2.3-.7-4.5-.1-6.2.7-1.6.7-2.7.1-3.1s-1-1.5-1-2.5c0-1.2-.9-2.2-2.3-2.5-1.7-.5-2.2-1.3-2.3-3.8-.2-7.6-2.8-10.7-8.9-10.7-1.5 0-2.6-.7-3-2-1-3.3-3.2-2.3-4.9 2.2zm64.7 117.4c-1.7 1.2-1.6 1.3.5 1.4 2.2 0 2.6 1.8.7 3.2-.6.4-.2 1.3.9 2.1 1.9 1.4 1.4 4.3-.5 3.2-.5-.4-.9.3-.9 1.4 0 1.2.7 2.1 1.5 2.1s1.5.4 1.5 1c0 1.3-.3 1.3-3.7-.2-3.7-1.6-8.2-5.1-6.3-4.8 3.2.5 5.1-.1 5.7-1.6.3-.9.1-1.9-.6-2.3-.6-.4-1.3-2.3-1.4-4.3-.3-3.1-.1-3.4 2-3 2.2.4 2.2.5.6 1.8zm31.7 5.5c0 .4-.5 1.1-1 1.4-.6.3-.8 2.1-.6 3.8.3 1.8.3 2.7 0 2-.4-.9-1.3-.9-3-.2-3.4 1.2-3.4 1.2-3.4-1.1 0-1.1.5-2 1-2 .6 0 1-.7 1-1.5s-.3-1.4-.7-1.4c-1.7.3-2.4-.2-1.8-1.1.7-1.2 8.5-1 8.5.1zm16.3 14.9c1 1 .8 1.2-.6.7-1.3-.5-2.1 0-2.9 1.8-.7 1.7-1.9 2.5-3.5 2.5-1.4 0-2.1-.4-1.8-1s.1-1-.4-1c-.6 0-1.1.5-1.1 1.2 0 .6-.3.8-.6.5-.4-.4-.1-1.4.7-2.4.9-1.1 1-1.4.2-.9-.8.4-1.3.2-1.3-.8 0-2.5 9-3.1 11.3-.6z"/><path fill="#80d4aa" stroke="#80d4aa" stroke-width="10" d="M371.5 456.4c-1.6.7-3.9 3-4.9 4.9-1.7 3.4-1.8 4.4-.7 13.9 1.7 14.8 1.5 14.5 6.4 14.6 6.5.1 9.1-.6 7.8-2.2-.9-1-.8-1.5.2-1.9.8-.3 1.2-1.8 1.1-3.6-.1-1.7.2-3.1.7-3.1s.9 1.3.9 2.9.6 3.1 1.3 3.4c.9.3.9.7-.2 2-1.2 1.5-1.1 1.7.7 1.7 1.6 0 1.9-.5 1.4-2.3-.5-1.9-.3-2 1-.9 1.3 1 1.4 1.7.5 3.7-.7 1.3-1.4 2-1.7 1.5s-1.9.1-3.5 1.4c-2.6 2.1-3.1 2.2-5.4 1-3.3-1.8-8-1.8-7.7-.2 1.1 5.1 2.3 8.3 5.9 15.8 4.2 8.7 11.7 21 12.8 21 .3 0 .4-1.2.2-2.8-.3-1.9-.2-2.3.5-1.4.7 1.1 1 .9 1.5-.7.4-1.6 0-2.1-1.6-2.1s-1.8-.3-.9-.9c1-.6.8-1-.8-1.4-1.2-.3-1.9-1-1.6-1.5.3-.6 0-1.3-.6-1.5-.8-.3-.6-.6.5-.6 2.1-.1 2.3-2.1.2-2.1-1 0-1.5-1.1-1.5-3.5 0-4 .5-4.2 4-1.6 2.1 1.6 2.2 2.1 1.1 3.5-.8.9-1.1 1.9-.7 2.3.3.3.6.1.6-.7 0-1 .3-1 1.4 0 2.5 2 6.9.8 8.5-2.3 1.3-2.6 1.1-3.3-2.8-10.8-5.3-9.9-7.7-16.8-10.2-28.9-2.5-12.5-3.5-14.6-7.4-16.4-3.9-1.9-3.2-1.9-7-.2zm17.5 40.1c0 .8.8 1.2 2 1 3.5-.7 2 2.8-1.7 3.9-1.3.4-2.3 1.2-2.3 1.8s-1.1.7-2.7.3-3.2-.8-3.8-.9c-.5-.1-2.1-.8-3.5-1.6s-2.8-1.3-3.2-1.2c-.5.1-.8-.3-.8-.8 0-.6.3-1 .8-1.1.4 0 1.6-.3 2.7-.5 2.9-.7 3.8-.7 5.7.1 1.1.4 2.1 0 2.9-1.3 1.3-2.1 3.9-1.9 3.9.3zm33.7 51.3c.1 2 .8 3.9 1.4 4.3.7.4.9 1.4.6 2.3-.6 1.5-2.5 2.1-5.7 1.6-1.9-.3 2.6 3.2 6.3 4.8 3.4 1.5 3.7 1.5 3.7.2 0-.6-.7-1-1.5-1s-1.5-.9-1.5-2.1c0-1.1.4-1.8.9-1.4 1.9 1.1 2.4-1.8.5-3.2-1.1-.8-1.5-1.7-.9-2.1 1.9-1.4 1.5-3.2-.7-3.2-2.1-.1-2.2-.2-.5-1.4 1.6-1.3 1.6-1.4-.6-1.8-2.1-.4-2.3-.1-2 3zm25.8 4.2c-.6.9.1 1.4 1.8 1.1.4 0 .7.6.7 1.4s-.4 1.5-1 1.5c-.5 0-1 .9-1 2 0 2.3 0 2.3 3.4 1.1 1.7-.7 2.6-.7 3 .2.3.7.3-.2 0-2-.2-1.7 0-3.5.6-3.8 2-1.2.9-2.1-2.9-2.3-2.2-.2-4.2.2-4.6.8zm13.7 1.3c2.2 1 2.5 1.5 1.6 3.1-.9 1.5-.6 2.2 1.3 3.7 1.3.9 2.6 1.6 3 1.3.4-.2 1.2.3 1.9 1.2 1.1 1.2 1.5 1.2 2.1.2 1.4-2.1 1-2.8-1.1-2.8-1.1 0-2-.4-2-.8 0-1.2 5-3.3 6.1-2.7 2.8 1.8 18.7 2.3 19.8.7.3-.5 1.2-1.1 1.8-1.3.7-.2-4-.5-10.5-.6-6.4-.1-13.9-.6-16.7-1.2-2.7-.6-6.1-1.3-7.5-1.5-2.5-.5-2.5-.5.2.7zm1.6 12.5c-1 .2-1.8 1-1.8 1.8 0 1 .5 1.2 1.3.8.8-.5.7-.2-.2.9-.8 1-1.1 2-.7 2.4.3.3.6.1.6-.5 0-.7.5-1.2 1.1-1.2.5 0 .7.4.4 1s.4 1 1.8 1c1.6 0 2.8-.8 3.5-2.5.8-1.8 1.6-2.3 2.9-1.8 1.4.5 1.6.3.6-.7-1.2-1.3-6.3-2-9.5-1.2z"/></svg>